solid OpenSCAD_Model
  facet normal 0.707107 0.707107 0
    outer loop
      vertex 10.6194 1.91342 6.5
      vertex 7.91342 4.6194 3.5
      vertex 7.91342 4.6194 6.5
    endloop
  endfacet
  facet normal 0.707107 0.707107 0
    outer loop
      vertex 7.91342 4.6194 3.5
      vertex 10.6194 1.91342 6.5
      vertex 10.6194 1.91342 3.5
    endloop
  endfacet
  facet normal -1 0 0
    outer loop
      vertex 1.3806 -1.91342 3.5
      vertex 1.3806 1.91342 6.5
      vertex 1.3806 1.91342 3.5
    endloop
  endfacet
  facet normal -1 -0 0
    outer loop
      vertex 1.3806 1.91342 6.5
      vertex 1.3806 -1.91342 3.5
      vertex 1.3806 -1.91342 6.5
    endloop
  endfacet
  facet normal 0 1 -0
    outer loop
      vertex 7.91342 4.6194 3.5
      vertex 4.08658 4.6194 6.5
      vertex 7.91342 4.6194 6.5
    endloop
  endfacet
  facet normal 0 1 0
    outer loop
      vertex 4.08658 4.6194 6.5
      vertex 7.91342 4.6194 3.5
      vertex 4.08658 4.6194 3.5
    endloop
  endfacet
  facet normal 0 0 -1
    outer loop
      vertex 10.6194 -1.91342 3.5
      vertex 9.38756 -1.40317 3.5
      vertex 10.6194 1.91342 3.5
    endloop
  endfacet
  facet normal 0 0 -1
    outer loop
      vertex 7.91342 -4.6194 3.5
      vertex 9.38756 -1.40317 3.5
      vertex 10.6194 -1.91342 3.5
    endloop
  endfacet
  facet normal 0 0 -1
    outer loop
      vertex 7.91342 -4.6194 3.5
      vertex 7.40317 -3.38756 3.5
      vertex 9.38756 -1.40317 3.5
    endloop
  endfacet
  facet normal 0 0 -1
    outer loop
      vertex 7.91342 -4.6194 3.5
      vertex 4.59683 -3.38756 3.5
      vertex 7.40317 -3.38756 3.5
    endloop
  endfacet
  facet normal 0 0 -1
    outer loop
      vertex 4.08658 -4.6194 3.5
      vertex 4.59683 -3.38756 3.5
      vertex 7.91342 -4.6194 3.5
    endloop
  endfacet
  facet normal 0 0 -1
    outer loop
      vertex 4.08658 -4.6194 3.5
      vertex 2.61244 -1.40317 3.5
      vertex 4.59683 -3.38756 3.5
    endloop
  endfacet
  facet normal -0 0 -1
    outer loop
      vertex 2.61244 -1.40317 3.5
      vertex 1.3806 -1.91342 3.5
      vertex 2.61244 1.40317 3.5
    endloop
  endfacet
  facet normal 0 0 -1
    outer loop
      vertex 1.3806 -1.91342 3.5
      vertex 2.61244 -1.40317 3.5
      vertex 4.08658 -4.6194 3.5
    endloop
  endfacet
  facet normal 0 0 -1
    outer loop
      vertex 9.38756 1.40317 3.5
      vertex 10.6194 1.91342 3.5
      vertex 9.38756 -1.40317 3.5
    endloop
  endfacet
  facet normal 0 0 -1
    outer loop
      vertex 9.38756 1.40317 3.5
      vertex 7.91342 4.6194 3.5
      vertex 10.6194 1.91342 3.5
    endloop
  endfacet
  facet normal 0 0 -1
    outer loop
      vertex 7.40317 3.38756 3.5
      vertex 7.91342 4.6194 3.5
      vertex 9.38756 1.40317 3.5
    endloop
  endfacet
  facet normal 0 0 -1
    outer loop
      vertex 4.59683 3.38756 3.5
      vertex 7.91342 4.6194 3.5
      vertex 7.40317 3.38756 3.5
    endloop
  endfacet
  facet normal 0 0 -1
    outer loop
      vertex 4.59683 3.38756 3.5
      vertex 4.08658 4.6194 3.5
      vertex 7.91342 4.6194 3.5
    endloop
  endfacet
  facet normal 0 0 -1
    outer loop
      vertex 2.61244 1.40317 3.5
      vertex 4.08658 4.6194 3.5
      vertex 4.59683 3.38756 3.5
    endloop
  endfacet
  facet normal 0 0 -1
    outer loop
      vertex 2.61244 1.40317 3.5
      vertex 1.3806 1.91342 3.5
      vertex 4.08658 4.6194 3.5
    endloop
  endfacet
  facet normal 0 0 -1
    outer loop
      vertex 1.3806 1.91342 3.5
      vertex 2.61244 1.40317 3.5
      vertex 1.3806 -1.91342 3.5
    endloop
  endfacet
  facet normal -0.707107 0.707107 0
    outer loop
      vertex 1.3806 1.91342 3.5
      vertex 4.08658 4.6194 6.5
      vertex 4.08658 4.6194 3.5
    endloop
  endfacet
  facet normal -0.707107 0.707107 0
    outer loop
      vertex 4.08658 4.6194 6.5
      vertex 1.3806 1.91342 3.5
      vertex 1.3806 1.91342 6.5
    endloop
  endfacet
  facet normal 0.707107 -0.707107 0
    outer loop
      vertex 7.91342 -4.6194 6.5
      vertex 10.6194 -1.91342 3.5
      vertex 10.6194 -1.91342 6.5
    endloop
  endfacet
  facet normal 0.707107 -0.707107 0
    outer loop
      vertex 10.6194 -1.91342 3.5
      vertex 7.91342 -4.6194 6.5
      vertex 7.91342 -4.6194 3.5
    endloop
  endfacet
  facet normal -0.707107 -0.707107 0
    outer loop
      vertex 4.08658 -4.6194 3.5
      vertex 1.3806 -1.91342 6.5
      vertex 1.3806 -1.91342 3.5
    endloop
  endfacet
  facet normal -0.707107 -0.707107 0
    outer loop
      vertex 1.3806 -1.91342 6.5
      vertex 4.08658 -4.6194 3.5
      vertex 4.08658 -4.6194 6.5
    endloop
  endfacet
  facet normal 1 -0 0
    outer loop
      vertex 10.6194 -1.91342 6.5
      vertex 10.6194 1.91342 3.5
      vertex 10.6194 1.91342 6.5
    endloop
  endfacet
  facet normal 1 0 0
    outer loop
      vertex 10.6194 1.91342 3.5
      vertex 10.6194 -1.91342 6.5
      vertex 10.6194 -1.91342 3.5
    endloop
  endfacet
  facet normal 0 -1 0
    outer loop
      vertex 4.08658 -4.6194 3.5
      vertex 7.91342 -4.6194 6.5
      vertex 4.08658 -4.6194 6.5
    endloop
  endfacet
  facet normal 0 -1 -0
    outer loop
      vertex 7.91342 -4.6194 6.5
      vertex 4.08658 -4.6194 3.5
      vertex 7.91342 -4.6194 3.5
    endloop
  endfacet
  facet normal 0 0 1
    outer loop
      vertex 10.6194 1.91342 6.5
      vertex 9.38756 1.40317 6.5
      vertex 10.6194 -1.91342 6.5
    endloop
  endfacet
  facet normal -0 0 1
    outer loop
      vertex 7.80907 2.98166 6.5
      vertex 10.6194 1.91342 6.5
      vertex 7.91342 4.6194 6.5
    endloop
  endfacet
  facet normal 0 0 1
    outer loop
      vertex 10.6194 1.91342 6.5
      vertex 7.80907 2.98166 6.5
      vertex 9.38756 1.40317 6.5
    endloop
  endfacet
  facet normal 0 0 1
    outer loop
      vertex 7.91342 4.6194 6.5
      vertex 7.40317 3.38756 6.5
      vertex 7.80907 2.98166 6.5
    endloop
  endfacet
  facet normal 0 0 1
    outer loop
      vertex 7.91342 4.6194 6.5
      vertex 4.59683 3.38756 6.5
      vertex 7.40317 3.38756 6.5
    endloop
  endfacet
  facet normal -0 0 1
    outer loop
      vertex 4.08658 4.6194 6.5
      vertex 4.59683 3.38756 6.5
      vertex 7.91342 4.6194 6.5
    endloop
  endfacet
  facet normal 0 0 1
    outer loop
      vertex 4.08658 4.6194 6.5
      vertex 4.19093 2.98166 6.5
      vertex 4.59683 3.38756 6.5
    endloop
  endfacet
  facet normal 0 0 1
    outer loop
      vertex 1.3806 1.91342 6.5
      vertex 4.19093 2.98166 6.5
      vertex 4.08658 4.6194 6.5
    endloop
  endfacet
  facet normal 0 0 1
    outer loop
      vertex 2.61244 1.40317 6.5
      vertex 1.3806 1.91342 6.5
      vertex 2.61244 -1.40317 6.5
    endloop
  endfacet
  facet normal 0 0 1
    outer loop
      vertex 4.19093 2.98166 6.5
      vertex 1.3806 1.91342 6.5
      vertex 2.61244 1.40317 6.5
    endloop
  endfacet
  facet normal -0 0 1
    outer loop
      vertex 9.38756 -1.40317 6.5
      vertex 10.6194 -1.91342 6.5
      vertex 9.38756 1.40317 6.5
    endloop
  endfacet
  facet normal 0 0 1
    outer loop
      vertex 9.38756 -1.40317 6.5
      vertex 7.91342 -4.6194 6.5
      vertex 10.6194 -1.91342 6.5
    endloop
  endfacet
  facet normal -0 0 1
    outer loop
      vertex 7.40317 -3.38756 6.5
      vertex 7.91342 -4.6194 6.5
      vertex 9.38756 -1.40317 6.5
    endloop
  endfacet
  facet normal -0 0 1
    outer loop
      vertex 4.59683 -3.38756 6.5
      vertex 7.91342 -4.6194 6.5
      vertex 7.40317 -3.38756 6.5
    endloop
  endfacet
  facet normal 0 0 1
    outer loop
      vertex 4.59683 -3.38756 6.5
      vertex 4.08658 -4.6194 6.5
      vertex 7.91342 -4.6194 6.5
    endloop
  endfacet
  facet normal 0 0 1
    outer loop
      vertex 2.61244 -1.40317 6.5
      vertex 4.08658 -4.6194 6.5
      vertex 4.59683 -3.38756 6.5
    endloop
  endfacet
  facet normal 0 0 1
    outer loop
      vertex 2.61244 -1.40317 6.5
      vertex 1.3806 -1.91342 6.5
      vertex 4.08658 -4.6194 6.5
    endloop
  endfacet
  facet normal 0 0 1
    outer loop
      vertex 1.3806 -1.91342 6.5
      vertex 2.61244 -1.40317 6.5
      vertex 1.3806 1.91342 6.5
    endloop
  endfacet
  facet normal -0.675787 -0.675787 0.294319
    outer loop
      vertex 1.84254 -1.72207 1
      vertex 4.59683 -3.38756 3.5
      vertex 2.61244 -1.40317 3.5
    endloop
  endfacet
  facet normal -0.675787 -0.675787 0.294319
    outer loop
      vertex 4.59683 -3.38756 3.5
      vertex 1.84254 -1.72207 1
      vertex 4.27793 -4.15746 1
    endloop
  endfacet
  facet normal 0 0.955707 0.294319
    outer loop
      vertex 7.72207 4.15746 1
      vertex 4.59683 3.38756 3.5
      vertex 7.40317 3.38756 3.5
    endloop
  endfacet
  facet normal 0 0.955707 0.294319
    outer loop
      vertex 4.59683 3.38756 3.5
      vertex 7.72207 4.15746 1
      vertex 4.27793 4.15746 1
    endloop
  endfacet
  facet normal 0.675787 0.675787 0.294319
    outer loop
      vertex 7.40317 3.38756 3.5
      vertex 10.1575 1.72207 1
      vertex 7.72207 4.15746 1
    endloop
  endfacet
  facet normal 0.675787 0.675787 0.294319
    outer loop
      vertex 10.1575 1.72207 1
      vertex 7.40317 3.38756 3.5
      vertex 9.38756 1.40317 3.5
    endloop
  endfacet
  facet normal 0 0 -1
    outer loop
      vertex 7.72207 -4.15746 1
      vertex 10.1575 1.72207 1
      vertex 10.1575 -1.72207 1
    endloop
  endfacet
  facet normal 0 0 -1
    outer loop
      vertex 7.72207 -4.15746 1
      vertex 7.72207 4.15746 1
      vertex 10.1575 1.72207 1
    endloop
  endfacet
  facet normal 0 0 -1
    outer loop
      vertex 4.27793 -4.15746 1
      vertex 7.72207 4.15746 1
      vertex 7.72207 -4.15746 1
    endloop
  endfacet
  facet normal 0 0 -1
    outer loop
      vertex 4.27793 -4.15746 1
      vertex 4.27793 4.15746 1
      vertex 7.72207 4.15746 1
    endloop
  endfacet
  facet normal 0 0 -1
    outer loop
      vertex 1.84254 -1.72207 1
      vertex 4.27793 4.15746 1
      vertex 4.27793 -4.15746 1
    endloop
  endfacet
  facet normal 0 0 -1
    outer loop
      vertex 4.27793 4.15746 1
      vertex 1.84254 -1.72207 1
      vertex 1.84254 1.72207 1
    endloop
  endfacet
  facet normal -0.675787 0.675787 0.294319
    outer loop
      vertex 1.84254 1.72207 1
      vertex 4.59683 3.38756 3.5
      vertex 4.27793 4.15746 1
    endloop
  endfacet
  facet normal -0.675787 0.675787 0.294319
    outer loop
      vertex 4.59683 3.38756 3.5
      vertex 1.84254 1.72207 1
      vertex 2.61244 1.40317 3.5
    endloop
  endfacet
  facet normal 0 -0.955707 0.294319
    outer loop
      vertex 4.27793 -4.15746 1
      vertex 7.40317 -3.38756 3.5
      vertex 4.59683 -3.38756 3.5
    endloop
  endfacet
  facet normal 0 -0.955707 0.294319
    outer loop
      vertex 7.40317 -3.38756 3.5
      vertex 4.27793 -4.15746 1
      vertex 7.72207 -4.15746 1
    endloop
  endfacet
  facet normal -0.955707 0 0.294319
    outer loop
      vertex 1.84254 1.72207 1
      vertex 2.61244 -1.40317 3.5
      vertex 2.61244 1.40317 3.5
    endloop
  endfacet
  facet normal -0.955707 0 0.294319
    outer loop
      vertex 2.61244 -1.40317 3.5
      vertex 1.84254 1.72207 1
      vertex 1.84254 -1.72207 1
    endloop
  endfacet
  facet normal 0.675787 -0.675787 0.294319
    outer loop
      vertex 7.40317 -3.38756 3.5
      vertex 10.1575 -1.72207 1
      vertex 9.38756 -1.40317 3.5
    endloop
  endfacet
  facet normal 0.675787 -0.675787 0.294319
    outer loop
      vertex 10.1575 -1.72207 1
      vertex 7.40317 -3.38756 3.5
      vertex 7.72207 -4.15746 1
    endloop
  endfacet
  facet normal 0.955707 -0 0.294319
    outer loop
      vertex 9.38756 -1.40317 3.5
      vertex 10.1575 1.72207 1
      vertex 9.38756 1.40317 3.5
    endloop
  endfacet
  facet normal 0.955707 0 0.294319
    outer loop
      vertex 10.1575 1.72207 1
      vertex 9.38756 -1.40317 3.5
      vertex 10.1575 -1.72207 1
    endloop
  endfacet
  facet normal -0.675787 0.675787 -0.294319
    outer loop
      vertex 2.61244 1.40317 6.5
      vertex 1.84254 1.72207 9
      vertex 4.19093 2.98166 6.5
    endloop
  endfacet
  facet normal 0 -0.955707 -0.294319
    outer loop
      vertex 4.59683 -3.38756 6.5
      vertex 7.72207 -4.15746 9
      vertex 4.27793 -4.15746 9
    endloop
  endfacet
  facet normal 0 -0.955707 -0.294319
    outer loop
      vertex 7.72207 -4.15746 9
      vertex 4.59683 -3.38756 6.5
      vertex 7.40317 -3.38756 6.5
    endloop
  endfacet
  facet normal 0.675787 -0.675787 -0.294319
    outer loop
      vertex 10.1575 -1.72207 9
      vertex 7.40317 -3.38756 6.5
      vertex 9.38756 -1.40317 6.5
    endloop
  endfacet
  facet normal 0.675787 -0.675787 -0.294319
    outer loop
      vertex 7.40317 -3.38756 6.5
      vertex 10.1575 -1.72207 9
      vertex 7.72207 -4.15746 9
    endloop
  endfacet
  facet normal -0 3.91591e-007 1
    outer loop
      vertex 4.27793 4.15746 9
      vertex 10.1575 1.72207 9
      vertex 7.72207 4.15746 9
    endloop
  endfacet
  facet normal 0 3.91591e-007 1
    outer loop
      vertex 10.1575 1.72207 9
      vertex 4.27793 4.15746 9
      vertex 1.84254 1.72207 9
    endloop
  endfacet
  facet normal 0.955707 0 -0.294319
    outer loop
      vertex 10.1575 1.72207 9
      vertex 9.38756 -1.40317 6.5
      vertex 9.38756 1.40317 6.5
    endloop
  endfacet
  facet normal 0.955707 0 -0.294319
    outer loop
      vertex 9.38756 -1.40317 6.5
      vertex 10.1575 1.72207 9
      vertex 10.1575 -1.72207 9
    endloop
  endfacet
  facet normal -0.675787 -0.675787 -0.294319
    outer loop
      vertex 4.59683 -3.38756 6.5
      vertex 1.84254 -1.72207 9
      vertex 2.61244 -1.40317 6.5
    endloop
  endfacet
  facet normal -0.675787 -0.675787 -0.294319
    outer loop
      vertex 1.84254 -1.72207 9
      vertex 4.59683 -3.38756 6.5
      vertex 4.27793 -4.15746 9
    endloop
  endfacet
  facet normal 0 0 1
    outer loop
      vertex 10.1575 1.72207 9
      vertex 7.72207 -4.15746 9
      vertex 10.1575 -1.72207 9
    endloop
  endfacet
  facet normal 0 0 1
    outer loop
      vertex 10.1575 1.72207 9
      vertex 4.27793 -4.15746 9
      vertex 7.72207 -4.15746 9
    endloop
  endfacet
  facet normal -0 0 1
    outer loop
      vertex 1.84254 1.72207 9
      vertex 4.27793 -4.15746 9
      vertex 10.1575 1.72207 9
    endloop
  endfacet
  facet normal 0 0 1
    outer loop
      vertex 4.27793 -4.15746 9
      vertex 1.84254 1.72207 9
      vertex 1.84254 -1.72207 9
    endloop
  endfacet
  facet normal 0.675787 0.675787 -0.294319
    outer loop
      vertex 7.72207 4.15746 9
      vertex 7.80907 2.98166 6.5
      vertex 7.40317 3.38756 6.5
    endloop
  endfacet
  facet normal 0.675787 0.675787 -0.294319
    outer loop
      vertex 7.80907 2.98166 6.5
      vertex 7.72207 4.15746 9
      vertex 10.1575 1.72207 9
    endloop
  endfacet
  facet normal 0 0.955707 -0.294319
    outer loop
      vertex 7.40317 3.38756 6.5
      vertex 4.27793 4.15746 9
      vertex 7.72207 4.15746 9
    endloop
  endfacet
  facet normal 0 0.955707 -0.294319
    outer loop
      vertex 4.27793 4.15746 9
      vertex 7.40317 3.38756 6.5
      vertex 4.59683 3.38756 6.5
    endloop
  endfacet
  facet normal -0.675787 0.675787 -0.294319
    outer loop
      vertex 4.19093 2.98166 6.5
      vertex 4.27793 4.15746 9
      vertex 4.59683 3.38756 6.5
    endloop
  endfacet
  facet normal -0.675787 0.675787 -0.294319
    outer loop
      vertex 4.27793 4.15746 9
      vertex 4.19093 2.98166 6.5
      vertex 1.84254 1.72207 9
    endloop
  endfacet
  facet normal -0.955707 0 -0.294319
    outer loop
      vertex 2.61244 -1.40317 6.5
      vertex 1.84254 1.72207 9
      vertex 2.61244 1.40317 6.5
    endloop
  endfacet
  facet normal -0.955707 -0 -0.294319
    outer loop
      vertex 1.84254 1.72207 9
      vertex 2.61244 -1.40317 6.5
      vertex 1.84254 -1.72207 9
    endloop
  endfacet
  facet normal 0.675787 0.675787 -0.294319
    outer loop
      vertex 9.38756 1.40317 6.5
      vertex 7.80907 2.98166 6.5
      vertex 10.1575 1.72207 9
    endloop
  endfacet
endsolid OpenSCAD_Model
