solid OpenSCAD_Model
  facet normal -0.294319 -0.675787 0.675787
    outer loop
      vertex 59.9325 -4.15746 1.72207
      vertex 56.9325 -1.33939 3.23358
      vertex 56.9325 -2.07297 2.5
    endloop
  endfacet
  facet normal -0.294319 -0.675787 0.675787
    outer loop
      vertex 56.9325 -1.33939 3.23358
      vertex 59.9325 -4.15746 1.72207
      vertex 59.9325 -1.72207 4.15746
    endloop
  endfacet
  facet normal -0.294319 -0.675787 0.675787
    outer loop
      vertex 59.9325 -4.15746 1.72207
      vertex 56.9325 -2.07297 2.5
      vertex 56.9325 -3.23358 1.33939
    endloop
  endfacet
  facet normal -0.294319 0 -0.955707
    outer loop
      vertex 56.9325 -1.33939 -3.23358
      vertex 59.9325 1.72207 -4.15746
      vertex 59.9325 -1.72207 -4.15746
    endloop
  endfacet
  facet normal -0.294319 0 -0.955707
    outer loop
      vertex 59.9325 1.72207 -4.15746
      vertex 56.9325 -1.33939 -3.23358
      vertex 56.9325 1.33939 -3.23358
    endloop
  endfacet
  facet normal -0.294319 0.675787 -0.675787
    outer loop
      vertex 59.9325 4.15746 -1.72207
      vertex 56.9325 1.33939 -3.23358
      vertex 56.9325 3.23358 -1.33939
    endloop
  endfacet
  facet normal -0.294319 0.675787 -0.675787
    outer loop
      vertex 56.9325 1.33939 -3.23358
      vertex 59.9325 4.15746 -1.72207
      vertex 59.9325 1.72207 -4.15746
    endloop
  endfacet
  facet normal 1 0 0
    outer loop
      vertex 59.9325 1.72207 4.15746
      vertex 59.9325 4.15746 -1.72207
      vertex 59.9325 4.15746 1.72207
    endloop
  endfacet
  facet normal 1 0 0
    outer loop
      vertex 59.9325 1.72207 4.15746
      vertex 59.9325 1.72207 -4.15746
      vertex 59.9325 4.15746 -1.72207
    endloop
  endfacet
  facet normal 1 -0 0
    outer loop
      vertex 59.9325 -1.72207 4.15746
      vertex 59.9325 1.72207 -4.15746
      vertex 59.9325 1.72207 4.15746
    endloop
  endfacet
  facet normal 1 0 0
    outer loop
      vertex 59.9325 -1.72207 4.15746
      vertex 59.9325 -1.72207 -4.15746
      vertex 59.9325 1.72207 -4.15746
    endloop
  endfacet
  facet normal 1 -0 0
    outer loop
      vertex 59.9325 -4.15746 1.72207
      vertex 59.9325 -1.72207 -4.15746
      vertex 59.9325 -1.72207 4.15746
    endloop
  endfacet
  facet normal 1 0 0
    outer loop
      vertex 59.9325 -1.72207 -4.15746
      vertex 59.9325 -4.15746 1.72207
      vertex 59.9325 -4.15746 -1.72207
    endloop
  endfacet
  facet normal -0.294319 -0.675787 -0.675787
    outer loop
      vertex 56.9325 -2.07297 -2.5
      vertex 59.9325 -4.15746 -1.72207
      vertex 56.9325 -3.23358 -1.33939
    endloop
  endfacet
  facet normal -0.294319 -0.675787 -0.675787
    outer loop
      vertex 56.9325 -1.33939 -3.23358
      vertex 59.9325 -4.15746 -1.72207
      vertex 56.9325 -2.07297 -2.5
    endloop
  endfacet
  facet normal -0.294319 -0.675787 -0.675787
    outer loop
      vertex 59.9325 -4.15746 -1.72207
      vertex 56.9325 -1.33939 -3.23358
      vertex 59.9325 -1.72207 -4.15746
    endloop
  endfacet
  facet normal -0.294319 0 0.955707
    outer loop
      vertex 56.9325 1.33939 3.23358
      vertex 59.9325 -1.72207 4.15746
      vertex 59.9325 1.72207 4.15746
    endloop
  endfacet
  facet normal -0.294319 0 0.955707
    outer loop
      vertex 59.9325 -1.72207 4.15746
      vertex 56.9325 1.33939 3.23358
      vertex 56.9325 -1.33939 3.23358
    endloop
  endfacet
  facet normal 1 0 0
    outer loop
      vertex 56.9325 4.15746 1.72207
      vertex 56.9325 3.23358 1.33939
      vertex 56.9325 4.15746 -1.72207
    endloop
  endfacet
  facet normal 1 0 0
    outer loop
      vertex 56.9325 1.72207 4.15746
      vertex 56.9325 3.23358 1.33939
      vertex 56.9325 4.15746 1.72207
    endloop
  endfacet
  facet normal 1 0 0
    outer loop
      vertex 56.9325 1.72207 4.15746
      vertex 56.9325 1.33939 3.23358
      vertex 56.9325 3.23358 1.33939
    endloop
  endfacet
  facet normal 1 0 0
    outer loop
      vertex 56.9325 1.72207 4.15746
      vertex 56.9325 -1.33939 3.23358
      vertex 56.9325 1.33939 3.23358
    endloop
  endfacet
  facet normal 1 -0 0
    outer loop
      vertex 56.9325 -1.72207 4.15746
      vertex 56.9325 -1.33939 3.23358
      vertex 56.9325 1.72207 4.15746
    endloop
  endfacet
  facet normal 1 0 0
    outer loop
      vertex 56.9325 -1.72207 4.15746
      vertex 56.9325 -2.07297 2.5
      vertex 56.9325 -1.33939 3.23358
    endloop
  endfacet
  facet normal 1 0 -0
    outer loop
      vertex 56.9325 -2.07297 2.5
      vertex 56.9325 -1.72207 4.15746
      vertex 56.9325 -3.37953 2.5
    endloop
  endfacet
  facet normal 1 -0 0
    outer loop
      vertex 56.9325 3.23358 -1.33939
      vertex 56.9325 4.15746 -1.72207
      vertex 56.9325 3.23358 1.33939
    endloop
  endfacet
  facet normal 1 0 0
    outer loop
      vertex 56.9325 3.23358 -1.33939
      vertex 56.9325 1.72207 -4.15746
      vertex 56.9325 4.15746 -1.72207
    endloop
  endfacet
  facet normal 1 -0 0
    outer loop
      vertex 56.9325 1.33939 -3.23358
      vertex 56.9325 1.72207 -4.15746
      vertex 56.9325 3.23358 -1.33939
    endloop
  endfacet
  facet normal 1 -0 0
    outer loop
      vertex 56.9325 -1.33939 -3.23358
      vertex 56.9325 1.72207 -4.15746
      vertex 56.9325 1.33939 -3.23358
    endloop
  endfacet
  facet normal 1 0 0
    outer loop
      vertex 56.9325 -1.33939 -3.23358
      vertex 56.9325 -1.72207 -4.15746
      vertex 56.9325 1.72207 -4.15746
    endloop
  endfacet
  facet normal 1 0 0
    outer loop
      vertex 56.9325 -2.07297 -2.5
      vertex 56.9325 -1.72207 -4.15746
      vertex 56.9325 -1.33939 -3.23358
    endloop
  endfacet
  facet normal 1 0 0
    outer loop
      vertex 56.9325 -1.72207 -4.15746
      vertex 56.9325 -2.07297 -2.5
      vertex 56.9325 -3.37953 -2.5
    endloop
  endfacet
  facet normal -0.294319 -0.955707 0
    outer loop
      vertex 56.9325 -3.23358 -1.33939
      vertex 59.9325 -4.15746 1.72207
      vertex 56.9325 -3.23358 1.33939
    endloop
  endfacet
  facet normal -0.294319 -0.955707 -0
    outer loop
      vertex 59.9325 -4.15746 1.72207
      vertex 56.9325 -3.23358 -1.33939
      vertex 59.9325 -4.15746 -1.72207
    endloop
  endfacet
  facet normal -0.294319 0.675787 0.675787
    outer loop
      vertex 59.9325 4.15746 1.72207
      vertex 56.9325 1.33939 3.23358
      vertex 59.9325 1.72207 4.15746
    endloop
  endfacet
  facet normal -0.294319 0.675787 0.675787
    outer loop
      vertex 56.9325 1.33939 3.23358
      vertex 59.9325 4.15746 1.72207
      vertex 56.9325 3.23358 1.33939
    endloop
  endfacet
  facet normal -0.294319 0.955707 0
    outer loop
      vertex 59.9325 4.15746 1.72207
      vertex 56.9325 3.23358 -1.33939
      vertex 56.9325 3.23358 1.33939
    endloop
  endfacet
  facet normal -0.294319 0.955707 0
    outer loop
      vertex 56.9325 3.23358 -1.33939
      vertex 59.9325 4.15746 1.72207
      vertex 59.9325 4.15746 -1.72207
    endloop
  endfacet
  facet normal 0 0.707107 -0.707107
    outer loop
      vertex 56.9325 3.37953 -2.5
      vertex 56.9325 1.72207 -4.15746
      vertex 54.9325 3.37953 -2.5
    endloop
  endfacet
  facet normal 0 0.707107 -0.707107
    outer loop
      vertex 54.9325 3.37953 -2.5
      vertex 53.9325 4.15746 -1.72207
      vertex 54.9325 4.15746 -1.72207
    endloop
  endfacet
  facet normal 0 0.707107 -0.707107
    outer loop
      vertex 53.9325 1.72207 -4.15746
      vertex 54.9325 3.37953 -2.5
      vertex 56.9325 1.72207 -4.15746
    endloop
  endfacet
  facet normal 0 0.707107 -0.707107
    outer loop
      vertex 54.9325 3.37953 -2.5
      vertex 53.9325 1.72207 -4.15746
      vertex 53.9325 4.15746 -1.72207
    endloop
  endfacet
  facet normal 0 0 0
    outer loop
      vertex 56.9325 1.72207 -4.15746
      vertex 56.9325 3.37953 -2.5
      vertex 56.9325 4.15746 -1.72207
    endloop
  endfacet
  facet normal 0 -1 0
    outer loop
      vertex 53.9325 -4.15746 -1.72207
      vertex 54.9325 -4.15746 1.72207
      vertex 53.9325 -4.15746 1.72207
    endloop
  endfacet
  facet normal 0 -1 -0
    outer loop
      vertex 54.9325 -4.15746 1.72207
      vertex 53.9325 -4.15746 -1.72207
      vertex 54.9325 -4.15746 -1.72207
    endloop
  endfacet
  facet normal 0 0 -1
    outer loop
      vertex 53.9325 -1.72207 -4.15746
      vertex 56.9325 1.72207 -4.15746
      vertex 56.9325 -1.72207 -4.15746
    endloop
  endfacet
  facet normal -0 0 -1
    outer loop
      vertex 56.9325 1.72207 -4.15746
      vertex 53.9325 -1.72207 -4.15746
      vertex 53.9325 1.72207 -4.15746
    endloop
  endfacet
  facet normal -1 0 0
    outer loop
      vertex 53.9325 1.72207 -4.15746
      vertex 53.9325 4.15746 1.72207
      vertex 53.9325 4.15746 -1.72207
    endloop
  endfacet
  facet normal -1 0 0
    outer loop
      vertex 53.9325 1.72207 -4.15746
      vertex 53.9325 1.72207 4.15746
      vertex 53.9325 4.15746 1.72207
    endloop
  endfacet
  facet normal -1 0 0
    outer loop
      vertex 53.9325 -1.72207 -4.15746
      vertex 53.9325 1.72207 4.15746
      vertex 53.9325 1.72207 -4.15746
    endloop
  endfacet
  facet normal -1 0 0
    outer loop
      vertex 53.9325 -1.72207 -4.15746
      vertex 53.9325 -1.72207 4.15746
      vertex 53.9325 1.72207 4.15746
    endloop
  endfacet
  facet normal -1 0 0
    outer loop
      vertex 53.9325 -4.15746 -1.72207
      vertex 53.9325 -1.72207 4.15746
      vertex 53.9325 -1.72207 -4.15746
    endloop
  endfacet
  facet normal -1 0 0
    outer loop
      vertex 53.9325 -1.72207 4.15746
      vertex 53.9325 -4.15746 -1.72207
      vertex 53.9325 -4.15746 1.72207
    endloop
  endfacet
  facet normal 0 -0.707107 -0.707107
    outer loop
      vertex 53.9325 -4.15746 -1.72207
      vertex 54.9325 -3.37953 -2.5
      vertex 54.9325 -4.15746 -1.72207
    endloop
  endfacet
  facet normal 0 -0.707107 -0.707107
    outer loop
      vertex 53.9325 -1.72207 -4.15746
      vertex 54.9325 -3.37953 -2.5
      vertex 53.9325 -4.15746 -1.72207
    endloop
  endfacet
  facet normal -0 -0.707107 -0.707107
    outer loop
      vertex 56.9325 -1.72207 -4.15746
      vertex 54.9325 -3.37953 -2.5
      vertex 53.9325 -1.72207 -4.15746
    endloop
  endfacet
  facet normal 0 -0.707107 -0.707107
    outer loop
      vertex 54.9325 -3.37953 -2.5
      vertex 56.9325 -1.72207 -4.15746
      vertex 56.9325 -3.37953 -2.5
    endloop
  endfacet
  facet normal -0 0.707107 0.707107
    outer loop
      vertex 54.9325 3.37953 2.5
      vertex 56.9325 1.72207 4.15746
      vertex 56.9325 3.37953 2.5
    endloop
  endfacet
  facet normal 0 0.707107 0.707107
    outer loop
      vertex 56.9325 1.72207 4.15746
      vertex 54.9325 3.37953 2.5
      vertex 53.9325 1.72207 4.15746
    endloop
  endfacet
  facet normal -0 0.707107 0.707107
    outer loop
      vertex 53.9325 4.15746 1.72207
      vertex 54.9325 3.37953 2.5
      vertex 54.9325 4.15746 1.72207
    endloop
  endfacet
  facet normal 0 0.707107 0.707107
    outer loop
      vertex 54.9325 3.37953 2.5
      vertex 53.9325 4.15746 1.72207
      vertex 53.9325 1.72207 4.15746
    endloop
  endfacet
  facet normal 0 0 0
    outer loop
      vertex 56.9325 1.72207 4.15746
      vertex 56.9325 4.15746 1.72207
      vertex 56.9325 3.37953 2.5
    endloop
  endfacet
  facet normal 0 -0.707107 0.707107
    outer loop
      vertex 53.9325 -1.72207 4.15746
      vertex 54.9325 -3.37953 2.5
      vertex 56.9325 -1.72207 4.15746
    endloop
  endfacet
  facet normal 0 -0.707107 0.707107
    outer loop
      vertex 53.9325 -4.15746 1.72207
      vertex 54.9325 -3.37953 2.5
      vertex 53.9325 -1.72207 4.15746
    endloop
  endfacet
  facet normal 0 -0.707107 0.707107
    outer loop
      vertex 54.9325 -3.37953 2.5
      vertex 53.9325 -4.15746 1.72207
      vertex 54.9325 -4.15746 1.72207
    endloop
  endfacet
  facet normal 0 -0.707107 0.707107
    outer loop
      vertex 56.9325 -1.72207 4.15746
      vertex 54.9325 -3.37953 2.5
      vertex 56.9325 -3.37953 2.5
    endloop
  endfacet
  facet normal -0 0 1
    outer loop
      vertex 53.9325 1.72207 4.15746
      vertex 56.9325 -1.72207 4.15746
      vertex 56.9325 1.72207 4.15746
    endloop
  endfacet
  facet normal 0 0 1
    outer loop
      vertex 56.9325 -1.72207 4.15746
      vertex 53.9325 1.72207 4.15746
      vertex 53.9325 -1.72207 4.15746
    endloop
  endfacet
  facet normal 0 1 -0
    outer loop
      vertex 54.9325 4.15746 -1.72207
      vertex 53.9325 4.15746 1.72207
      vertex 54.9325 4.15746 1.72207
    endloop
  endfacet
  facet normal 0 1 0
    outer loop
      vertex 53.9325 4.15746 1.72207
      vertex 54.9325 4.15746 -1.72207
      vertex 53.9325 4.15746 -1.72207
    endloop
  endfacet
  facet normal 0 1 -0
    outer loop
      vertex 52.9325 18.45 -2.5
      vertex 50.9325 18.45 2.5
      vertex 52.9325 18.45 2.5
    endloop
  endfacet
  facet normal 0 1 0
    outer loop
      vertex 50.9325 18.45 2.5
      vertex 52.9325 18.45 -2.5
      vertex 50.9325 18.45 -2.5
    endloop
  endfacet
  facet normal -1 0 0
    outer loop
      vertex 54.9325 17.5 -2.5
      vertex 54.9325 20.55 2.5
      vertex 54.9325 20.55 -2.5
    endloop
  endfacet
  facet normal -1 -0 0
    outer loop
      vertex 54.9325 20.55 2.5
      vertex 54.9325 17.5 -2.5
      vertex 54.9325 17.5 2.5
    endloop
  endfacet
  facet normal 0 -1 0
    outer loop
      vertex 50.9325 20.55 -2.5
      vertex 54.9325 20.55 2.5
      vertex 50.9325 20.55 2.5
    endloop
  endfacet
  facet normal 0 -1 -0
    outer loop
      vertex 54.9325 20.55 2.5
      vertex 50.9325 20.55 -2.5
      vertex 54.9325 20.55 -2.5
    endloop
  endfacet
  facet normal 1 -0 0
    outer loop
      vertex 52.9325 17.5 2.5
      vertex 52.9325 18.45 -2.5
      vertex 52.9325 18.45 2.5
    endloop
  endfacet
  facet normal 1 0 0
    outer loop
      vertex 52.9325 18.45 -2.5
      vertex 52.9325 17.5 2.5
      vertex 52.9325 17.5 -2.5
    endloop
  endfacet
  facet normal 0 1 -0
    outer loop
      vertex 54.9325 17.5 -2.5
      vertex 52.9325 17.5 2.5
      vertex 54.9325 17.5 2.5
    endloop
  endfacet
  facet normal 0 1 0
    outer loop
      vertex 52.9325 17.5 2.5
      vertex 54.9325 17.5 -2.5
      vertex 52.9325 17.5 -2.5
    endloop
  endfacet
  facet normal 0 1 -0
    outer loop
      vertex 52.9325 -24.55 -2.5
      vertex 50.9325 -24.55 2.5
      vertex 52.9325 -24.55 2.5
    endloop
  endfacet
  facet normal 0 1 0
    outer loop
      vertex 50.9325 -24.55 2.5
      vertex 52.9325 -24.55 -2.5
      vertex 50.9325 -24.55 -2.5
    endloop
  endfacet
  facet normal -1 0 0
    outer loop
      vertex 54.9325 -25.5 -2.5
      vertex 54.9325 -22.45 2.5
      vertex 54.9325 -22.45 -2.5
    endloop
  endfacet
  facet normal -1 -0 0
    outer loop
      vertex 54.9325 -22.45 2.5
      vertex 54.9325 -25.5 -2.5
      vertex 54.9325 -25.5 2.5
    endloop
  endfacet
  facet normal 0 -1 0
    outer loop
      vertex 50.9325 -22.45 -2.5
      vertex 54.9325 -22.45 2.5
      vertex 50.9325 -22.45 2.5
    endloop
  endfacet
  facet normal 0 -1 -0
    outer loop
      vertex 54.9325 -22.45 2.5
      vertex 50.9325 -22.45 -2.5
      vertex 54.9325 -22.45 -2.5
    endloop
  endfacet
  facet normal 1 -0 0
    outer loop
      vertex 52.9325 -25.5 2.5
      vertex 52.9325 -24.55 -2.5
      vertex 52.9325 -24.55 2.5
    endloop
  endfacet
  facet normal 1 0 0
    outer loop
      vertex 52.9325 -24.55 -2.5
      vertex 52.9325 -25.5 2.5
      vertex 52.9325 -25.5 -2.5
    endloop
  endfacet
  facet normal 0 1 -0
    outer loop
      vertex 54.9325 -25.5 -2.5
      vertex 52.9325 -25.5 2.5
      vertex 54.9325 -25.5 2.5
    endloop
  endfacet
  facet normal 0 1 0
    outer loop
      vertex 52.9325 -25.5 2.5
      vertex 54.9325 -25.5 -2.5
      vertex 52.9325 -25.5 -2.5
    endloop
  endfacet
  facet normal -1 0 0
    outer loop
      vertex 50.9325 -27.5 -2.5
      vertex 50.9325 -24.55 2.5
      vertex 50.9325 -24.55 -2.5
    endloop
  endfacet
  facet normal -1 -0 0
    outer loop
      vertex 50.9325 -24.55 2.5
      vertex 50.9325 -27.5 -2.5
      vertex 50.9325 -27.5 2.5
    endloop
  endfacet
  facet normal -1 0 0
    outer loop
      vertex 50.9325 20.55 -2.5
      vertex 50.9325 22.5 2.5
      vertex 50.9325 22.5 -2.5
    endloop
  endfacet
  facet normal -1 -0 0
    outer loop
      vertex 50.9325 22.5 2.5
      vertex 50.9325 20.55 -2.5
      vertex 50.9325 20.55 2.5
    endloop
  endfacet
  facet normal -1 0 0
    outer loop
      vertex 50.9325 15.5 -2.5
      vertex 50.9325 18.45 2.5
      vertex 50.9325 18.45 -2.5
    endloop
  endfacet
  facet normal -1 -0 0
    outer loop
      vertex 50.9325 18.45 2.5
      vertex 50.9325 15.5 -2.5
      vertex 50.9325 15.5 2.5
    endloop
  endfacet
  facet normal -1 0 0
    outer loop
      vertex 50.9325 -22.45 -2.5
      vertex 50.9325 -20.5 2.5
      vertex 50.9325 -20.5 -2.5
    endloop
  endfacet
  facet normal -1 -0 0
    outer loop
      vertex 50.9325 -20.5 2.5
      vertex 50.9325 -22.45 -2.5
      vertex 50.9325 -22.45 2.5
    endloop
  endfacet
  facet normal 0 -1 0
    outer loop
      vertex 50.9325 -27.5 -2.5
      vertex 56.9325 -27.5 2.5
      vertex 50.9325 -27.5 2.5
    endloop
  endfacet
  facet normal 0 -1 -0
    outer loop
      vertex 56.9325 -27.5 2.5
      vertex 50.9325 -27.5 -2.5
      vertex 56.9325 -27.5 -2.5
    endloop
  endfacet
  facet normal 1 0 0
    outer loop
      vertex 56.9325 -3.23358 1.33939
      vertex 56.9325 -27.5 2.5
      vertex 56.9325 -3.23358 -1.33939
    endloop
  endfacet
  facet normal 1 -0 0
    outer loop
      vertex 56.9325 -27.5 2.5
      vertex 56.9325 -3.23358 1.33939
      vertex 56.9325 -2.07297 2.5
    endloop
  endfacet
  facet normal 1 0 0
    outer loop
      vertex 56.9325 -27.5 -2.5
      vertex 56.9325 -3.23358 -1.33939
      vertex 56.9325 -27.5 2.5
    endloop
  endfacet
  facet normal 1 0 0
    outer loop
      vertex 56.9325 -3.23358 -1.33939
      vertex 56.9325 -27.5 -2.5
      vertex 56.9325 -2.07297 -2.5
    endloop
  endfacet
  facet normal 1 0 0
    outer loop
      vertex 56.9325 22.5 2.5
      vertex 56.9325 4.15746 1.72207
      vertex 56.9325 22.5 -2.5
    endloop
  endfacet
  facet normal 1 0 -0
    outer loop
      vertex 56.9325 4.15746 1.72207
      vertex 56.9325 22.5 2.5
      vertex 56.9325 3.37953 2.5
    endloop
  endfacet
  facet normal 1 -0 0
    outer loop
      vertex 56.9325 4.15746 -1.72207
      vertex 56.9325 22.5 -2.5
      vertex 56.9325 4.15746 1.72207
    endloop
  endfacet
  facet normal 1 0 0
    outer loop
      vertex 56.9325 22.5 -2.5
      vertex 56.9325 4.15746 -1.72207
      vertex 56.9325 3.37953 -2.5
    endloop
  endfacet
  facet normal 0 0 1
    outer loop
      vertex 52.9325 -24.55 2.5
      vertex 50.9325 -24.55 2.5
      vertex 52.9325 -25.5 2.5
    endloop
  endfacet
  facet normal -0 0 1
    outer loop
      vertex 50.9325 -20.5 2.5
      vertex 54.9325 -22.45 2.5
      vertex 54.9325 -20.5 2.5
    endloop
  endfacet
  facet normal 0 0 1
    outer loop
      vertex 54.9325 -22.45 2.5
      vertex 50.9325 -20.5 2.5
      vertex 50.9325 -22.45 2.5
    endloop
  endfacet
  facet normal 0 0 1
    outer loop
      vertex 54.9325 -20.5 2.5
      vertex 56.9325 -3.37953 2.5
      vertex 54.9325 -3.37953 2.5
    endloop
  endfacet
  facet normal 0 0 1
    outer loop
      vertex 56.9325 -3.37953 2.5
      vertex 54.9325 -20.5 2.5
      vertex 56.9325 -27.5 2.5
    endloop
  endfacet
  facet normal -0 0 1
    outer loop
      vertex 54.9325 -22.45 2.5
      vertex 56.9325 -27.5 2.5
      vertex 54.9325 -20.5 2.5
    endloop
  endfacet
  facet normal -0 0 1
    outer loop
      vertex 54.9325 -25.5 2.5
      vertex 56.9325 -27.5 2.5
      vertex 54.9325 -22.45 2.5
    endloop
  endfacet
  facet normal -0 0 1
    outer loop
      vertex 52.9325 -25.5 2.5
      vertex 56.9325 -27.5 2.5
      vertex 54.9325 -25.5 2.5
    endloop
  endfacet
  facet normal 0 0 1
    outer loop
      vertex 50.9325 -27.5 2.5
      vertex 52.9325 -25.5 2.5
      vertex 50.9325 -24.55 2.5
    endloop
  endfacet
  facet normal 0 0 1
    outer loop
      vertex 52.9325 -25.5 2.5
      vertex 50.9325 -27.5 2.5
      vertex 56.9325 -27.5 2.5
    endloop
  endfacet
  facet normal 0 0 0
    outer loop
      vertex 56.9325 -3.37953 2.5
      vertex 56.9325 -27.5 2.5
      vertex 56.9325 -2.07297 2.5
    endloop
  endfacet
  facet normal 0 0 1
    outer loop
      vertex 52.9325 18.45 2.5
      vertex 50.9325 18.45 2.5
      vertex 52.9325 17.5 2.5
    endloop
  endfacet
  facet normal -0 0 1
    outer loop
      vertex 52.9325 17.5 2.5
      vertex 54.9325 15.5 2.5
      vertex 54.9325 17.5 2.5
    endloop
  endfacet
  facet normal 0 0 1
    outer loop
      vertex 50.9325 15.5 2.5
      vertex 52.9325 17.5 2.5
      vertex 50.9325 18.45 2.5
    endloop
  endfacet
  facet normal 0 0 1
    outer loop
      vertex 52.9325 17.5 2.5
      vertex 50.9325 15.5 2.5
      vertex 54.9325 15.5 2.5
    endloop
  endfacet
  facet normal 0 0 1
    outer loop
      vertex 54.9325 17.5 2.5
      vertex 56.9325 22.5 2.5
      vertex 54.9325 20.55 2.5
    endloop
  endfacet
  facet normal -0 0 1
    outer loop
      vertex 50.9325 22.5 2.5
      vertex 54.9325 20.55 2.5
      vertex 56.9325 22.5 2.5
    endloop
  endfacet
  facet normal 0 0 1
    outer loop
      vertex 54.9325 20.55 2.5
      vertex 50.9325 22.5 2.5
      vertex 50.9325 20.55 2.5
    endloop
  endfacet
  facet normal 0 0 1
    outer loop
      vertex 54.9325 15.5 2.5
      vertex 56.9325 22.5 2.5
      vertex 54.9325 17.5 2.5
    endloop
  endfacet
  facet normal 0 0 1
    outer loop
      vertex 56.9325 22.5 2.5
      vertex 54.9325 15.5 2.5
      vertex 56.9325 3.37953 2.5
    endloop
  endfacet
  facet normal 0 0 1
    outer loop
      vertex 56.9325 3.37953 2.5
      vertex 54.9325 15.5 2.5
      vertex 54.9325 3.37953 2.5
    endloop
  endfacet
  facet normal 0 1 -0
    outer loop
      vertex 56.9325 22.5 -2.5
      vertex 50.9325 22.5 2.5
      vertex 56.9325 22.5 2.5
    endloop
  endfacet
  facet normal 0 1 0
    outer loop
      vertex 50.9325 22.5 2.5
      vertex 56.9325 22.5 -2.5
      vertex 50.9325 22.5 -2.5
    endloop
  endfacet
  facet normal 0 0 -1
    outer loop
      vertex 50.9325 -22.45 -2.5
      vertex 54.9325 -20.5 -2.5
      vertex 54.9325 -22.45 -2.5
    endloop
  endfacet
  facet normal -0 0 -1
    outer loop
      vertex 54.9325 -20.5 -2.5
      vertex 50.9325 -22.45 -2.5
      vertex 50.9325 -20.5 -2.5
    endloop
  endfacet
  facet normal 0 0 -1
    outer loop
      vertex 54.9325 -22.45 -2.5
      vertex 56.9325 -27.5 -2.5
      vertex 54.9325 -25.5 -2.5
    endloop
  endfacet
  facet normal 0 0 -1
    outer loop
      vertex 56.9325 -27.5 -2.5
      vertex 52.9325 -25.5 -2.5
      vertex 54.9325 -25.5 -2.5
    endloop
  endfacet
  facet normal 0 0 -1
    outer loop
      vertex 50.9325 -27.5 -2.5
      vertex 52.9325 -25.5 -2.5
      vertex 56.9325 -27.5 -2.5
    endloop
  endfacet
  facet normal 0 0 -1
    outer loop
      vertex 50.9325 -24.55 -2.5
      vertex 52.9325 -25.5 -2.5
      vertex 50.9325 -27.5 -2.5
    endloop
  endfacet
  facet normal 0 0 -1
    outer loop
      vertex 52.9325 -25.5 -2.5
      vertex 50.9325 -24.55 -2.5
      vertex 52.9325 -24.55 -2.5
    endloop
  endfacet
  facet normal 0 0 -1
    outer loop
      vertex 54.9325 -20.5 -2.5
      vertex 56.9325 -27.5 -2.5
      vertex 54.9325 -22.45 -2.5
    endloop
  endfacet
  facet normal 0 0 -1
    outer loop
      vertex 56.9325 -27.5 -2.5
      vertex 54.9325 -20.5 -2.5
      vertex 56.9325 -3.37953 -2.5
    endloop
  endfacet
  facet normal -0 0 -1
    outer loop
      vertex 56.9325 -3.37953 -2.5
      vertex 54.9325 -20.5 -2.5
      vertex 54.9325 -3.37953 -2.5
    endloop
  endfacet
  facet normal 0 0 0
    outer loop
      vertex 56.9325 -27.5 -2.5
      vertex 56.9325 -3.37953 -2.5
      vertex 56.9325 -2.07297 -2.5
    endloop
  endfacet
  facet normal 0 0 -1
    outer loop
      vertex 54.9325 15.5 -2.5
      vertex 52.9325 17.5 -2.5
      vertex 54.9325 17.5 -2.5
    endloop
  endfacet
  facet normal 0 0 -1
    outer loop
      vertex 50.9325 15.5 -2.5
      vertex 52.9325 17.5 -2.5
      vertex 54.9325 15.5 -2.5
    endloop
  endfacet
  facet normal 0 0 -1
    outer loop
      vertex 50.9325 18.45 -2.5
      vertex 52.9325 17.5 -2.5
      vertex 50.9325 15.5 -2.5
    endloop
  endfacet
  facet normal 0 0 -1
    outer loop
      vertex 52.9325 17.5 -2.5
      vertex 50.9325 18.45 -2.5
      vertex 52.9325 18.45 -2.5
    endloop
  endfacet
  facet normal 0 0 -1
    outer loop
      vertex 54.9325 15.5 -2.5
      vertex 56.9325 3.37953 -2.5
      vertex 54.9325 3.37953 -2.5
    endloop
  endfacet
  facet normal 0 0 -1
    outer loop
      vertex 56.9325 3.37953 -2.5
      vertex 54.9325 15.5 -2.5
      vertex 56.9325 22.5 -2.5
    endloop
  endfacet
  facet normal 0 0 -1
    outer loop
      vertex 54.9325 17.5 -2.5
      vertex 56.9325 22.5 -2.5
      vertex 54.9325 15.5 -2.5
    endloop
  endfacet
  facet normal 0 0 -1
    outer loop
      vertex 54.9325 20.55 -2.5
      vertex 56.9325 22.5 -2.5
      vertex 54.9325 17.5 -2.5
    endloop
  endfacet
  facet normal 0 0 -1
    outer loop
      vertex 50.9325 22.5 -2.5
      vertex 54.9325 20.55 -2.5
      vertex 50.9325 20.55 -2.5
    endloop
  endfacet
  facet normal 0 0 -1
    outer loop
      vertex 54.9325 20.55 -2.5
      vertex 50.9325 22.5 -2.5
      vertex 56.9325 22.5 -2.5
    endloop
  endfacet
  facet normal 0 1 -0
    outer loop
      vertex 54.9325 -20.5 -2.5
      vertex 50.9325 -20.5 2.5
      vertex 54.9325 -20.5 2.5
    endloop
  endfacet
  facet normal 0 1 0
    outer loop
      vertex 50.9325 -20.5 2.5
      vertex 54.9325 -20.5 -2.5
      vertex 50.9325 -20.5 -2.5
    endloop
  endfacet
  facet normal -1 -0 0
    outer loop
      vertex 54.9325 -4.15746 -1.72207
      vertex 54.9325 -20.5 -2.5
      vertex 54.9325 -4.15746 1.72207
    endloop
  endfacet
  facet normal -1 0 0
    outer loop
      vertex 54.9325 -20.5 -2.5
      vertex 54.9325 -4.15746 -1.72207
      vertex 54.9325 -3.37953 -2.5
    endloop
  endfacet
  facet normal -1 0 0
    outer loop
      vertex 54.9325 -20.5 2.5
      vertex 54.9325 -4.15746 1.72207
      vertex 54.9325 -20.5 -2.5
    endloop
  endfacet
  facet normal -1 0 0
    outer loop
      vertex 54.9325 -4.15746 1.72207
      vertex 54.9325 -20.5 2.5
      vertex 54.9325 -3.37953 2.5
    endloop
  endfacet
  facet normal -1 0 0
    outer loop
      vertex 54.9325 15.5 -2.5
      vertex 54.9325 4.15746 -1.72207
      vertex 54.9325 15.5 2.5
    endloop
  endfacet
  facet normal -1 0 -0
    outer loop
      vertex 54.9325 4.15746 -1.72207
      vertex 54.9325 15.5 -2.5
      vertex 54.9325 3.37953 -2.5
    endloop
  endfacet
  facet normal -1 0 0
    outer loop
      vertex 54.9325 4.15746 1.72207
      vertex 54.9325 15.5 2.5
      vertex 54.9325 4.15746 -1.72207
    endloop
  endfacet
  facet normal -1 -0 0
    outer loop
      vertex 54.9325 15.5 2.5
      vertex 54.9325 4.15746 1.72207
      vertex 54.9325 3.37953 2.5
    endloop
  endfacet
  facet normal 0 -1 0
    outer loop
      vertex 50.9325 15.5 -2.5
      vertex 54.9325 15.5 2.5
      vertex 50.9325 15.5 2.5
    endloop
  endfacet
  facet normal 0 -1 -0
    outer loop
      vertex 54.9325 15.5 2.5
      vertex 50.9325 15.5 -2.5
      vertex 54.9325 15.5 -2.5
    endloop
  endfacet
endsolid OpenSCAD_Model
