solid OpenSCAD_Model
  facet normal -0.294319 -0.675787 0.675787
    outer loop
      vertex 50.8614 -1.33939 3.23358
      vertex 53.8614 -4.15746 1.72207
      vertex 53.8614 -1.72207 4.15746
    endloop
  endfacet
  facet normal -0.294319 -0.675787 0.675787
    outer loop
      vertex 53.8614 -4.15746 1.72207
      vertex 50.8614 -1.33939 3.23358
      vertex 50.8614 -3.23358 1.33939
    endloop
  endfacet
  facet normal -0.294319 0 -0.955707
    outer loop
      vertex 50.8614 -1.33939 -3.23358
      vertex 53.8614 1.72207 -4.15746
      vertex 53.8614 -1.72207 -4.15746
    endloop
  endfacet
  facet normal -0.294319 0 -0.955707
    outer loop
      vertex 53.8614 1.72207 -4.15746
      vertex 50.8614 -1.33939 -3.23358
      vertex 50.8614 1.33939 -3.23358
    endloop
  endfacet
  facet normal -0.294319 0.675787 -0.675787
    outer loop
      vertex 53.8614 4.15746 -1.72207
      vertex 50.8614 1.33939 -3.23358
      vertex 50.8614 3.23358 -1.33939
    endloop
  endfacet
  facet normal -0.294319 0.675787 -0.675787
    outer loop
      vertex 50.8614 1.33939 -3.23358
      vertex 53.8614 4.15746 -1.72207
      vertex 53.8614 1.72207 -4.15746
    endloop
  endfacet
  facet normal 1 0 0
    outer loop
      vertex 53.8614 1.72207 4.15746
      vertex 53.8614 4.15746 -1.72207
      vertex 53.8614 4.15746 1.72207
    endloop
  endfacet
  facet normal 1 0 0
    outer loop
      vertex 53.8614 1.72207 4.15746
      vertex 53.8614 1.72207 -4.15746
      vertex 53.8614 4.15746 -1.72207
    endloop
  endfacet
  facet normal 1 -0 0
    outer loop
      vertex 53.8614 -1.72207 4.15746
      vertex 53.8614 1.72207 -4.15746
      vertex 53.8614 1.72207 4.15746
    endloop
  endfacet
  facet normal 1 0 0
    outer loop
      vertex 53.8614 -1.72207 4.15746
      vertex 53.8614 -1.72207 -4.15746
      vertex 53.8614 1.72207 -4.15746
    endloop
  endfacet
  facet normal 1 -0 0
    outer loop
      vertex 53.8614 -4.15746 1.72207
      vertex 53.8614 -1.72207 -4.15746
      vertex 53.8614 -1.72207 4.15746
    endloop
  endfacet
  facet normal 1 0 0
    outer loop
      vertex 53.8614 -1.72207 -4.15746
      vertex 53.8614 -4.15746 1.72207
      vertex 53.8614 -4.15746 -1.72207
    endloop
  endfacet
  facet normal -0.294319 -0.675787 -0.675787
    outer loop
      vertex 50.8614 -1.33939 -3.23358
      vertex 53.8614 -4.15746 -1.72207
      vertex 50.8614 -3.23358 -1.33939
    endloop
  endfacet
  facet normal -0.294319 -0.675787 -0.675787
    outer loop
      vertex 53.8614 -4.15746 -1.72207
      vertex 50.8614 -1.33939 -3.23358
      vertex 53.8614 -1.72207 -4.15746
    endloop
  endfacet
  facet normal -0.294319 0 0.955707
    outer loop
      vertex 50.8614 1.33939 3.23358
      vertex 53.8614 -1.72207 4.15746
      vertex 53.8614 1.72207 4.15746
    endloop
  endfacet
  facet normal -0.294319 0 0.955707
    outer loop
      vertex 53.8614 -1.72207 4.15746
      vertex 50.8614 1.33939 3.23358
      vertex 50.8614 -1.33939 3.23358
    endloop
  endfacet
  facet normal 1 0 0
    outer loop
      vertex 50.8614 4.15746 1.72207
      vertex 50.8614 3.23358 1.33939
      vertex 50.8614 4.15746 -1.72207
    endloop
  endfacet
  facet normal 1 0 0
    outer loop
      vertex 50.8614 1.72207 4.15746
      vertex 50.8614 3.23358 1.33939
      vertex 50.8614 4.15746 1.72207
    endloop
  endfacet
  facet normal 1 0 0
    outer loop
      vertex 50.8614 1.72207 4.15746
      vertex 50.8614 1.33939 3.23358
      vertex 50.8614 3.23358 1.33939
    endloop
  endfacet
  facet normal 1 0 0
    outer loop
      vertex 50.8614 1.72207 4.15746
      vertex 50.8614 -1.33939 3.23358
      vertex 50.8614 1.33939 3.23358
    endloop
  endfacet
  facet normal 1 -0 0
    outer loop
      vertex 50.8614 -1.72207 4.15746
      vertex 50.8614 -1.33939 3.23358
      vertex 50.8614 1.72207 4.15746
    endloop
  endfacet
  facet normal 1 0 0
    outer loop
      vertex 50.8614 -1.72207 4.15746
      vertex 50.8614 -3.23358 1.33939
      vertex 50.8614 -1.33939 3.23358
    endloop
  endfacet
  facet normal 1 0 0
    outer loop
      vertex 50.8614 -3.23358 1.33939
      vertex 50.8614 -4.15746 1.72207
      vertex 50.8614 -3.23358 -1.33939
    endloop
  endfacet
  facet normal 1 -0 0
    outer loop
      vertex 50.8614 -4.15746 1.72207
      vertex 50.8614 -3.23358 1.33939
      vertex 50.8614 -1.72207 4.15746
    endloop
  endfacet
  facet normal 1 -0 0
    outer loop
      vertex 50.8614 3.23358 -1.33939
      vertex 50.8614 4.15746 -1.72207
      vertex 50.8614 3.23358 1.33939
    endloop
  endfacet
  facet normal 1 0 0
    outer loop
      vertex 50.8614 3.23358 -1.33939
      vertex 50.8614 1.72207 -4.15746
      vertex 50.8614 4.15746 -1.72207
    endloop
  endfacet
  facet normal 1 -0 0
    outer loop
      vertex 50.8614 1.33939 -3.23358
      vertex 50.8614 1.72207 -4.15746
      vertex 50.8614 3.23358 -1.33939
    endloop
  endfacet
  facet normal 1 -0 0
    outer loop
      vertex 50.8614 -1.33939 -3.23358
      vertex 50.8614 1.72207 -4.15746
      vertex 50.8614 1.33939 -3.23358
    endloop
  endfacet
  facet normal 1 0 0
    outer loop
      vertex 50.8614 -1.33939 -3.23358
      vertex 50.8614 -1.72207 -4.15746
      vertex 50.8614 1.72207 -4.15746
    endloop
  endfacet
  facet normal 1 0 0
    outer loop
      vertex 50.8614 -3.23358 -1.33939
      vertex 50.8614 -1.72207 -4.15746
      vertex 50.8614 -1.33939 -3.23358
    endloop
  endfacet
  facet normal 1 0 0
    outer loop
      vertex 50.8614 -3.23358 -1.33939
      vertex 50.8614 -4.15746 -1.72207
      vertex 50.8614 -1.72207 -4.15746
    endloop
  endfacet
  facet normal 1 0 0
    outer loop
      vertex 50.8614 -4.15746 -1.72207
      vertex 50.8614 -3.23358 -1.33939
      vertex 50.8614 -4.15746 1.72207
    endloop
  endfacet
  facet normal -0.294319 -0.955707 0
    outer loop
      vertex 50.8614 -3.23358 -1.33939
      vertex 53.8614 -4.15746 1.72207
      vertex 50.8614 -3.23358 1.33939
    endloop
  endfacet
  facet normal -0.294319 -0.955707 -0
    outer loop
      vertex 53.8614 -4.15746 1.72207
      vertex 50.8614 -3.23358 -1.33939
      vertex 53.8614 -4.15746 -1.72207
    endloop
  endfacet
  facet normal -0.294319 0.675787 0.675787
    outer loop
      vertex 53.8614 4.15746 1.72207
      vertex 50.8614 1.33939 3.23358
      vertex 53.8614 1.72207 4.15746
    endloop
  endfacet
  facet normal -0.294319 0.675787 0.675787
    outer loop
      vertex 50.8614 1.33939 3.23358
      vertex 53.8614 4.15746 1.72207
      vertex 50.8614 3.23358 1.33939
    endloop
  endfacet
  facet normal -0.294319 0.955707 0
    outer loop
      vertex 53.8614 4.15746 1.72207
      vertex 50.8614 3.23358 -1.33939
      vertex 50.8614 3.23358 1.33939
    endloop
  endfacet
  facet normal -0.294319 0.955707 0
    outer loop
      vertex 50.8614 3.23358 -1.33939
      vertex 53.8614 4.15746 1.72207
      vertex 53.8614 4.15746 -1.72207
    endloop
  endfacet
  facet normal 0 0.707107 -0.707107
    outer loop
      vertex 50.8614 4.15746 -1.72207
      vertex 49.8614 3.37953 -2.5
      vertex 49.8614 4.15746 -1.72207
    endloop
  endfacet
  facet normal 0 0.707107 -0.707107
    outer loop
      vertex 50.8614 1.72207 -4.15746
      vertex 49.8614 3.37953 -2.5
      vertex 50.8614 4.15746 -1.72207
    endloop
  endfacet
  facet normal 0 0.707107 -0.707107
    outer loop
      vertex 47.8614 1.72207 -4.15746
      vertex 49.8614 3.37953 -2.5
      vertex 50.8614 1.72207 -4.15746
    endloop
  endfacet
  facet normal 0 0.707107 -0.707107
    outer loop
      vertex 49.8614 3.37953 -2.5
      vertex 47.8614 1.72207 -4.15746
      vertex 47.8614 3.37953 -2.5
    endloop
  endfacet
  facet normal 0 -1 0
    outer loop
      vertex 49.8614 -4.15746 -1.72207
      vertex 50.8614 -4.15746 1.72207
      vertex 49.8614 -4.15746 1.72207
    endloop
  endfacet
  facet normal 0 -1 -0
    outer loop
      vertex 50.8614 -4.15746 1.72207
      vertex 49.8614 -4.15746 -1.72207
      vertex 50.8614 -4.15746 -1.72207
    endloop
  endfacet
  facet normal 0 0 -1
    outer loop
      vertex 47.8614 -1.72207 -4.15746
      vertex 50.8614 1.72207 -4.15746
      vertex 50.8614 -1.72207 -4.15746
    endloop
  endfacet
  facet normal -0 0 -1
    outer loop
      vertex 50.8614 1.72207 -4.15746
      vertex 47.8614 -1.72207 -4.15746
      vertex 47.8614 1.72207 -4.15746
    endloop
  endfacet
  facet normal -1 0 0
    outer loop
      vertex 47.8614 1.72207 -4.15746
      vertex 47.8614 -1.37878 -2.5
      vertex 47.8614 3.37953 -2.5
    endloop
  endfacet
  facet normal -1 0 -0
    outer loop
      vertex 47.8614 -1.37878 -2.5
      vertex 47.8614 1.72207 -4.15746
      vertex 47.8614 -1.72207 -4.15746
    endloop
  endfacet
  facet normal -1 0 0
    outer loop
      vertex 47.8614 1.37878 2.5
      vertex 47.8614 1.72207 4.15746
      vertex 47.8614 3.37953 2.5
    endloop
  endfacet
  facet normal -1 0 0
    outer loop
      vertex 47.8614 -4.15746 1.72207
      vertex 47.8614 1.37878 2.5
      vertex 47.8614 -1.37878 -2.5
    endloop
  endfacet
  facet normal -1 0 0
    outer loop
      vertex 47.8614 1.37878 2.5
      vertex 47.8614 -1.72207 4.15746
      vertex 47.8614 1.72207 4.15746
    endloop
  endfacet
  facet normal -1 0 0
    outer loop
      vertex 47.8614 -4.15746 -1.72207
      vertex 47.8614 -1.37878 -2.5
      vertex 47.8614 -1.72207 -4.15746
    endloop
  endfacet
  facet normal -1 0 0
    outer loop
      vertex 47.8614 -4.15746 1.72207
      vertex 47.8614 -1.37878 -2.5
      vertex 47.8614 -4.15746 -1.72207
    endloop
  endfacet
  facet normal -1 -0 0
    outer loop
      vertex 47.8614 1.37878 2.5
      vertex 47.8614 -4.15746 1.72207
      vertex 47.8614 -1.72207 4.15746
    endloop
  endfacet
  facet normal 0 -0.707107 -0.707107
    outer loop
      vertex 47.8614 -3.37953 -2.5
      vertex 47.8614 -1.72207 -4.15746
      vertex 49.8614 -3.37953 -2.5
    endloop
  endfacet
  facet normal 0 -0.707107 -0.707107
    outer loop
      vertex 49.8614 -3.37953 -2.5
      vertex 50.8614 -4.15746 -1.72207
      vertex 49.8614 -4.15746 -1.72207
    endloop
  endfacet
  facet normal -0 -0.707107 -0.707107
    outer loop
      vertex 50.8614 -1.72207 -4.15746
      vertex 49.8614 -3.37953 -2.5
      vertex 47.8614 -1.72207 -4.15746
    endloop
  endfacet
  facet normal 0 -0.707107 -0.707107
    outer loop
      vertex 49.8614 -3.37953 -2.5
      vertex 50.8614 -1.72207 -4.15746
      vertex 50.8614 -4.15746 -1.72207
    endloop
  endfacet
  facet normal 0 0 0
    outer loop
      vertex 47.8614 -3.37953 -2.5
      vertex 47.8614 -4.15746 -1.72207
      vertex 47.8614 -1.72207 -4.15746
    endloop
  endfacet
  facet normal 0 0.707107 0.707107
    outer loop
      vertex 50.8614 1.72207 4.15746
      vertex 49.8614 3.37953 2.5
      vertex 47.8614 1.72207 4.15746
    endloop
  endfacet
  facet normal 0 0.707107 0.707107
    outer loop
      vertex 50.8614 4.15746 1.72207
      vertex 49.8614 3.37953 2.5
      vertex 50.8614 1.72207 4.15746
    endloop
  endfacet
  facet normal 0 0.707107 0.707107
    outer loop
      vertex 49.8614 3.37953 2.5
      vertex 50.8614 4.15746 1.72207
      vertex 49.8614 4.15746 1.72207
    endloop
  endfacet
  facet normal 0 0.707107 0.707107
    outer loop
      vertex 47.8614 1.72207 4.15746
      vertex 49.8614 3.37953 2.5
      vertex 47.8614 3.37953 2.5
    endloop
  endfacet
  facet normal 0 -0.707107 0.707107
    outer loop
      vertex 49.8614 -3.37953 2.5
      vertex 47.8614 -1.72207 4.15746
      vertex 47.8614 -3.37953 2.5
    endloop
  endfacet
  facet normal 0 -0.707107 0.707107
    outer loop
      vertex 47.8614 -1.72207 4.15746
      vertex 49.8614 -3.37953 2.5
      vertex 50.8614 -1.72207 4.15746
    endloop
  endfacet
  facet normal 0 -0.707107 0.707107
    outer loop
      vertex 50.8614 -4.15746 1.72207
      vertex 49.8614 -3.37953 2.5
      vertex 49.8614 -4.15746 1.72207
    endloop
  endfacet
  facet normal 0 -0.707107 0.707107
    outer loop
      vertex 49.8614 -3.37953 2.5
      vertex 50.8614 -4.15746 1.72207
      vertex 50.8614 -1.72207 4.15746
    endloop
  endfacet
  facet normal 0 0 0
    outer loop
      vertex 47.8614 -3.37953 2.5
      vertex 47.8614 -1.72207 4.15746
      vertex 47.8614 -4.15746 1.72207
    endloop
  endfacet
  facet normal -0 0 1
    outer loop
      vertex 47.8614 1.72207 4.15746
      vertex 50.8614 -1.72207 4.15746
      vertex 50.8614 1.72207 4.15746
    endloop
  endfacet
  facet normal 0 0 1
    outer loop
      vertex 50.8614 -1.72207 4.15746
      vertex 47.8614 1.72207 4.15746
      vertex 47.8614 -1.72207 4.15746
    endloop
  endfacet
  facet normal 0 1 -0
    outer loop
      vertex 50.8614 4.15746 -1.72207
      vertex 49.8614 4.15746 1.72207
      vertex 50.8614 4.15746 1.72207
    endloop
  endfacet
  facet normal 0 1 0
    outer loop
      vertex 49.8614 4.15746 1.72207
      vertex 50.8614 4.15746 -1.72207
      vertex 49.8614 4.15746 -1.72207
    endloop
  endfacet
  facet normal 0 1 -0
    outer loop
      vertex 45.8614 16.95 -2.5
      vertex 43.8614 16.95 2.5
      vertex 45.8614 16.95 2.5
    endloop
  endfacet
  facet normal 0 1 0
    outer loop
      vertex 43.8614 16.95 2.5
      vertex 45.8614 16.95 -2.5
      vertex 43.8614 16.95 -2.5
    endloop
  endfacet
  facet normal -1 0 0
    outer loop
      vertex 47.8614 16 -2.5
      vertex 47.8614 19.05 2.5
      vertex 47.8614 19.05 -2.5
    endloop
  endfacet
  facet normal -1 -0 0
    outer loop
      vertex 47.8614 19.05 2.5
      vertex 47.8614 16 -2.5
      vertex 47.8614 16 2.5
    endloop
  endfacet
  facet normal 0 -1 0
    outer loop
      vertex 43.8614 19.05 -2.5
      vertex 47.8614 19.05 2.5
      vertex 43.8614 19.05 2.5
    endloop
  endfacet
  facet normal 0 -1 -0
    outer loop
      vertex 47.8614 19.05 2.5
      vertex 43.8614 19.05 -2.5
      vertex 47.8614 19.05 -2.5
    endloop
  endfacet
  facet normal 1 -0 0
    outer loop
      vertex 45.8614 16 2.5
      vertex 45.8614 16.95 -2.5
      vertex 45.8614 16.95 2.5
    endloop
  endfacet
  facet normal 1 0 0
    outer loop
      vertex 45.8614 16.95 -2.5
      vertex 45.8614 16 2.5
      vertex 45.8614 16 -2.5
    endloop
  endfacet
  facet normal 0 1 -0
    outer loop
      vertex 47.8614 16 -2.5
      vertex 45.8614 16 2.5
      vertex 47.8614 16 2.5
    endloop
  endfacet
  facet normal 0 1 0
    outer loop
      vertex 45.8614 16 2.5
      vertex 47.8614 16 -2.5
      vertex 45.8614 16 -2.5
    endloop
  endfacet
  facet normal 0 1 -0
    outer loop
      vertex 45.8614 -12.05 -2.5
      vertex 43.8614 -12.05 2.5
      vertex 45.8614 -12.05 2.5
    endloop
  endfacet
  facet normal 0 1 0
    outer loop
      vertex 43.8614 -12.05 2.5
      vertex 45.8614 -12.05 -2.5
      vertex 43.8614 -12.05 -2.5
    endloop
  endfacet
  facet normal -1 0 0
    outer loop
      vertex 47.8614 -13 -2.5
      vertex 47.8614 -9.95 2.5
      vertex 47.8614 -9.95 -2.5
    endloop
  endfacet
  facet normal -1 -0 0
    outer loop
      vertex 47.8614 -9.95 2.5
      vertex 47.8614 -13 -2.5
      vertex 47.8614 -13 2.5
    endloop
  endfacet
  facet normal 0 -1 0
    outer loop
      vertex 43.8614 -9.95 -2.5
      vertex 47.8614 -9.95 2.5
      vertex 43.8614 -9.95 2.5
    endloop
  endfacet
  facet normal 0 -1 -0
    outer loop
      vertex 47.8614 -9.95 2.5
      vertex 43.8614 -9.95 -2.5
      vertex 47.8614 -9.95 -2.5
    endloop
  endfacet
  facet normal 1 -0 0
    outer loop
      vertex 45.8614 -13 2.5
      vertex 45.8614 -12.05 -2.5
      vertex 45.8614 -12.05 2.5
    endloop
  endfacet
  facet normal 1 0 0
    outer loop
      vertex 45.8614 -12.05 -2.5
      vertex 45.8614 -13 2.5
      vertex 45.8614 -13 -2.5
    endloop
  endfacet
  facet normal 0 1 -0
    outer loop
      vertex 47.8614 -13 -2.5
      vertex 45.8614 -13 2.5
      vertex 47.8614 -13 2.5
    endloop
  endfacet
  facet normal 0 1 0
    outer loop
      vertex 45.8614 -13 2.5
      vertex 47.8614 -13 -2.5
      vertex 45.8614 -13 -2.5
    endloop
  endfacet
  facet normal -1 0 0
    outer loop
      vertex 43.8614 -14 -2.5
      vertex 43.8614 -12.05 2.5
      vertex 43.8614 -12.05 -2.5
    endloop
  endfacet
  facet normal -1 -0 0
    outer loop
      vertex 43.8614 -12.05 2.5
      vertex 43.8614 -14 -2.5
      vertex 43.8614 -14 2.5
    endloop
  endfacet
  facet normal -1 0 0
    outer loop
      vertex 43.8614 19.05 -2.5
      vertex 43.8614 21 2.5
      vertex 43.8614 21 -2.5
    endloop
  endfacet
  facet normal -1 -0 0
    outer loop
      vertex 43.8614 21 2.5
      vertex 43.8614 19.05 -2.5
      vertex 43.8614 19.05 2.5
    endloop
  endfacet
  facet normal -1 0 0
    outer loop
      vertex 43.8614 15 -2.5
      vertex 43.8614 16.95 2.5
      vertex 43.8614 16.95 -2.5
    endloop
  endfacet
  facet normal -1 -0 0
    outer loop
      vertex 43.8614 16.95 2.5
      vertex 43.8614 15 -2.5
      vertex 43.8614 15 2.5
    endloop
  endfacet
  facet normal -1 0 0
    outer loop
      vertex 43.8614 -9.95 -2.5
      vertex 43.8614 -8 2.5
      vertex 43.8614 -8 -2.5
    endloop
  endfacet
  facet normal -1 -0 0
    outer loop
      vertex 43.8614 -8 2.5
      vertex 43.8614 -9.95 -2.5
      vertex 43.8614 -9.95 2.5
    endloop
  endfacet
  facet normal 0 -1 0
    outer loop
      vertex 43.8614 -14 -2.5
      vertex 49.8614 -14 2.5
      vertex 43.8614 -14 2.5
    endloop
  endfacet
  facet normal 0 -1 -0
    outer loop
      vertex 49.8614 -14 2.5
      vertex 43.8614 -14 -2.5
      vertex 49.8614 -14 -2.5
    endloop
  endfacet
  facet normal 1 0 0
    outer loop
      vertex 49.8614 -4.15746 1.72207
      vertex 49.8614 -14 2.5
      vertex 49.8614 -4.15746 -1.72207
    endloop
  endfacet
  facet normal 1 -0 0
    outer loop
      vertex 49.8614 -14 2.5
      vertex 49.8614 -4.15746 1.72207
      vertex 49.8614 -3.37953 2.5
    endloop
  endfacet
  facet normal 1 0 0
    outer loop
      vertex 49.8614 -14 -2.5
      vertex 49.8614 -4.15746 -1.72207
      vertex 49.8614 -14 2.5
    endloop
  endfacet
  facet normal 1 0 0
    outer loop
      vertex 49.8614 -4.15746 -1.72207
      vertex 49.8614 -14 -2.5
      vertex 49.8614 -3.37953 -2.5
    endloop
  endfacet
  facet normal 1 0 0
    outer loop
      vertex 49.8614 21 2.5
      vertex 49.8614 4.15746 1.72207
      vertex 49.8614 21 -2.5
    endloop
  endfacet
  facet normal 1 0 -0
    outer loop
      vertex 49.8614 4.15746 1.72207
      vertex 49.8614 21 2.5
      vertex 49.8614 3.37953 2.5
    endloop
  endfacet
  facet normal 1 -0 0
    outer loop
      vertex 49.8614 4.15746 -1.72207
      vertex 49.8614 21 -2.5
      vertex 49.8614 4.15746 1.72207
    endloop
  endfacet
  facet normal 1 0 0
    outer loop
      vertex 49.8614 21 -2.5
      vertex 49.8614 4.15746 -1.72207
      vertex 49.8614 3.37953 -2.5
    endloop
  endfacet
  facet normal 0 1 -0
    outer loop
      vertex 49.8614 21 -2.5
      vertex 43.8614 21 2.5
      vertex 49.8614 21 2.5
    endloop
  endfacet
  facet normal 0 1 0
    outer loop
      vertex 43.8614 21 2.5
      vertex 49.8614 21 -2.5
      vertex 43.8614 21 -2.5
    endloop
  endfacet
  facet normal 0 0 -1
    outer loop
      vertex 43.8614 -9.95 -2.5
      vertex 47.8614 -8 -2.5
      vertex 47.8614 -9.95 -2.5
    endloop
  endfacet
  facet normal -0 0 -1
    outer loop
      vertex 47.8614 -8 -2.5
      vertex 43.8614 -9.95 -2.5
      vertex 43.8614 -8 -2.5
    endloop
  endfacet
  facet normal 0 0 -1
    outer loop
      vertex 47.8614 -9.95 -2.5
      vertex 49.8614 -14 -2.5
      vertex 47.8614 -13 -2.5
    endloop
  endfacet
  facet normal 0 0 -1
    outer loop
      vertex 49.8614 -14 -2.5
      vertex 45.8614 -13 -2.5
      vertex 47.8614 -13 -2.5
    endloop
  endfacet
  facet normal 0 0 -1
    outer loop
      vertex 43.8614 -14 -2.5
      vertex 45.8614 -13 -2.5
      vertex 49.8614 -14 -2.5
    endloop
  endfacet
  facet normal 0 0 -1
    outer loop
      vertex 43.8614 -12.05 -2.5
      vertex 45.8614 -13 -2.5
      vertex 43.8614 -14 -2.5
    endloop
  endfacet
  facet normal 0 0 -1
    outer loop
      vertex 45.8614 -13 -2.5
      vertex 43.8614 -12.05 -2.5
      vertex 45.8614 -12.05 -2.5
    endloop
  endfacet
  facet normal 0 0 -1
    outer loop
      vertex 47.8614 -8 -2.5
      vertex 49.8614 -14 -2.5
      vertex 47.8614 -9.95 -2.5
    endloop
  endfacet
  facet normal 0 0 -1
    outer loop
      vertex 49.8614 -14 -2.5
      vertex 47.8614 -8 -2.5
      vertex 49.8614 -3.37953 -2.5
    endloop
  endfacet
  facet normal -0 0 -1
    outer loop
      vertex 49.8614 -3.37953 -2.5
      vertex 47.8614 -8 -2.5
      vertex 47.8614 -3.37953 -2.5
    endloop
  endfacet
  facet normal 0 0 -1
    outer loop
      vertex 47.8614 15 -2.5
      vertex 45.8614 16 -2.5
      vertex 47.8614 16 -2.5
    endloop
  endfacet
  facet normal 0 0 -1
    outer loop
      vertex 43.8614 15 -2.5
      vertex 45.8614 16 -2.5
      vertex 47.8614 15 -2.5
    endloop
  endfacet
  facet normal 0 0 -1
    outer loop
      vertex 43.8614 16.95 -2.5
      vertex 45.8614 16 -2.5
      vertex 43.8614 15 -2.5
    endloop
  endfacet
  facet normal 0 0 -1
    outer loop
      vertex 45.8614 16 -2.5
      vertex 43.8614 16.95 -2.5
      vertex 45.8614 16.95 -2.5
    endloop
  endfacet
  facet normal 0 0 -1
    outer loop
      vertex 47.8614 15 -2.5
      vertex 49.8614 3.37953 -2.5
      vertex 47.8614 3.37953 -2.5
    endloop
  endfacet
  facet normal 0 0 -1
    outer loop
      vertex 49.8614 3.37953 -2.5
      vertex 47.8614 15 -2.5
      vertex 49.8614 21 -2.5
    endloop
  endfacet
  facet normal 0 0 -1
    outer loop
      vertex 47.8614 16 -2.5
      vertex 49.8614 21 -2.5
      vertex 47.8614 15 -2.5
    endloop
  endfacet
  facet normal 0 0 -1
    outer loop
      vertex 47.8614 19.05 -2.5
      vertex 49.8614 21 -2.5
      vertex 47.8614 16 -2.5
    endloop
  endfacet
  facet normal 0 0 -1
    outer loop
      vertex 43.8614 21 -2.5
      vertex 47.8614 19.05 -2.5
      vertex 43.8614 19.05 -2.5
    endloop
  endfacet
  facet normal 0 0 -1
    outer loop
      vertex 47.8614 19.05 -2.5
      vertex 43.8614 21 -2.5
      vertex 49.8614 21 -2.5
    endloop
  endfacet
  facet normal 0 0 0
    outer loop
      vertex 47.8614 15 -2.5
      vertex 47.8614 3.37953 -2.5
      vertex 47.8614 -1.37878 -2.5
    endloop
  endfacet
  facet normal 0 0 1
    outer loop
      vertex 45.8614 -12.05 2.5
      vertex 43.8614 -12.05 2.5
      vertex 45.8614 -13 2.5
    endloop
  endfacet
  facet normal -0 0 1
    outer loop
      vertex 43.8614 -8 2.5
      vertex 47.8614 -9.95 2.5
      vertex 47.8614 -8 2.5
    endloop
  endfacet
  facet normal 0 0 1
    outer loop
      vertex 47.8614 -9.95 2.5
      vertex 43.8614 -8 2.5
      vertex 43.8614 -9.95 2.5
    endloop
  endfacet
  facet normal 0 0 1
    outer loop
      vertex 47.8614 -8 2.5
      vertex 49.8614 -3.37953 2.5
      vertex 47.8614 -3.37953 2.5
    endloop
  endfacet
  facet normal 0 0 1
    outer loop
      vertex 49.8614 -3.37953 2.5
      vertex 47.8614 -8 2.5
      vertex 49.8614 -14 2.5
    endloop
  endfacet
  facet normal -0 0 1
    outer loop
      vertex 47.8614 -9.95 2.5
      vertex 49.8614 -14 2.5
      vertex 47.8614 -8 2.5
    endloop
  endfacet
  facet normal -0 0 1
    outer loop
      vertex 47.8614 -13 2.5
      vertex 49.8614 -14 2.5
      vertex 47.8614 -9.95 2.5
    endloop
  endfacet
  facet normal -0 0 1
    outer loop
      vertex 45.8614 -13 2.5
      vertex 49.8614 -14 2.5
      vertex 47.8614 -13 2.5
    endloop
  endfacet
  facet normal 0 0 1
    outer loop
      vertex 45.8614 -13 2.5
      vertex 43.8614 -14 2.5
      vertex 49.8614 -14 2.5
    endloop
  endfacet
  facet normal 0 0 1
    outer loop
      vertex 43.8614 -14 2.5
      vertex 45.8614 -13 2.5
      vertex 43.8614 -12.05 2.5
    endloop
  endfacet
  facet normal 0 0 1
    outer loop
      vertex 45.8614 16.95 2.5
      vertex 43.8614 16.95 2.5
      vertex 45.8614 16 2.5
    endloop
  endfacet
  facet normal -0 0 1
    outer loop
      vertex 45.8614 16 2.5
      vertex 47.8614 15 2.5
      vertex 47.8614 16 2.5
    endloop
  endfacet
  facet normal 0 0 1
    outer loop
      vertex 43.8614 15 2.5
      vertex 45.8614 16 2.5
      vertex 43.8614 16.95 2.5
    endloop
  endfacet
  facet normal 0 0 1
    outer loop
      vertex 45.8614 16 2.5
      vertex 43.8614 15 2.5
      vertex 47.8614 15 2.5
    endloop
  endfacet
  facet normal 0 0 1
    outer loop
      vertex 47.8614 16 2.5
      vertex 49.8614 21 2.5
      vertex 47.8614 19.05 2.5
    endloop
  endfacet
  facet normal -0 0 1
    outer loop
      vertex 43.8614 21 2.5
      vertex 47.8614 19.05 2.5
      vertex 49.8614 21 2.5
    endloop
  endfacet
  facet normal 0 0 1
    outer loop
      vertex 47.8614 19.05 2.5
      vertex 43.8614 21 2.5
      vertex 43.8614 19.05 2.5
    endloop
  endfacet
  facet normal 0 0 1
    outer loop
      vertex 47.8614 15 2.5
      vertex 49.8614 21 2.5
      vertex 47.8614 16 2.5
    endloop
  endfacet
  facet normal 0 0 1
    outer loop
      vertex 49.8614 21 2.5
      vertex 47.8614 15 2.5
      vertex 49.8614 3.37953 2.5
    endloop
  endfacet
  facet normal 0 0 1
    outer loop
      vertex 49.8614 3.37953 2.5
      vertex 47.8614 15 2.5
      vertex 47.8614 3.37953 2.5
    endloop
  endfacet
  facet normal 0 0 0
    outer loop
      vertex 47.8614 15 2.5
      vertex 47.8614 1.37878 2.5
      vertex 47.8614 3.37953 2.5
    endloop
  endfacet
  facet normal 0 1 -0
    outer loop
      vertex 47.8614 -8 -2.5
      vertex 43.8614 -8 2.5
      vertex 47.8614 -8 2.5
    endloop
  endfacet
  facet normal 0 1 0
    outer loop
      vertex 43.8614 -8 2.5
      vertex 47.8614 -8 -2.5
      vertex 43.8614 -8 -2.5
    endloop
  endfacet
  facet normal -1 -0 0
    outer loop
      vertex 47.8614 -4.15746 -1.72207
      vertex 47.8614 -8 -2.5
      vertex 47.8614 -4.15746 1.72207
    endloop
  endfacet
  facet normal -1 0 0
    outer loop
      vertex 47.8614 -8 -2.5
      vertex 47.8614 -4.15746 -1.72207
      vertex 47.8614 -3.37953 -2.5
    endloop
  endfacet
  facet normal -1 0 0
    outer loop
      vertex 47.8614 -4.15746 1.72207
      vertex 47.8614 -8 2.5
      vertex 47.8614 -3.37953 2.5
    endloop
  endfacet
  facet normal -1 0 0
    outer loop
      vertex 47.8614 -8 2.5
      vertex 47.8614 -4.15746 1.72207
      vertex 47.8614 -8 -2.5
    endloop
  endfacet
  facet normal -1 0 0
    outer loop
      vertex 47.8614 15 -2.5
      vertex 47.8614 1.37878 2.5
      vertex 47.8614 15 2.5
    endloop
  endfacet
  facet normal -1 0 -0
    outer loop
      vertex 47.8614 1.37878 2.5
      vertex 47.8614 15 -2.5
      vertex 47.8614 -1.37878 -2.5
    endloop
  endfacet
  facet normal 0 -1 0
    outer loop
      vertex 43.8614 15 -2.5
      vertex 47.8614 15 2.5
      vertex 43.8614 15 2.5
    endloop
  endfacet
  facet normal 0 -1 -0
    outer loop
      vertex 47.8614 15 2.5
      vertex 43.8614 15 -2.5
      vertex 47.8614 15 -2.5
    endloop
  endfacet
endsolid OpenSCAD_Model
