solid OpenSCAD_Model
  facet normal 0.636363 -0.771389 -2.3467e-006
    outer loop
      vertex 11.25 22.7747 12.6328
      vertex 10.7588 22.3695 12.9659
      vertex 9 20.9186 12.9659
    endloop
  endfacet
  facet normal 0.636366 -0.771387 3.35918e-006
    outer loop
      vertex 10.7588 22.3695 12.9659
      vertex 11.25 22.7747 12.6328
      vertex 11.2071 22.7393 12.7071
    endloop
  endfacet
  facet normal 0.636364 -0.771389 0
    outer loop
      vertex 9 20.9186 12.9659
      vertex 11.25 22.7747 0.367187
      vertex 11.25 22.7747 12.6328
    endloop
  endfacet
  facet normal 0.636364 -0.771389 0
    outer loop
      vertex 9 20.9186 0.0340748
      vertex 11.25 22.7747 0.367187
      vertex 9 20.9186 12.9659
    endloop
  endfacet
  facet normal 0.636363 -0.771389 2.3467e-006
    outer loop
      vertex 10.7588 22.3695 0.0340748
      vertex 11.25 22.7747 0.367187
      vertex 9 20.9186 0.0340748
    endloop
  endfacet
  facet normal 0.636366 -0.771387 -3.3592e-006
    outer loop
      vertex 11.25 22.7747 0.367187
      vertex 10.7588 22.3695 0.0340748
      vertex 11.2071 22.7393 0.292893
    endloop
  endfacet
  facet normal 0.636366 0.771387 3.35918e-006
    outer loop
      vertex 11.25 -22.7747 12.6328
      vertex 10.7588 -22.3695 12.9659
      vertex 11.2071 -22.7393 12.7071
    endloop
  endfacet
  facet normal 0.636363 0.771389 -2.3467e-006
    outer loop
      vertex 10.7588 -22.3695 12.9659
      vertex 11.25 -22.7747 12.6328
      vertex 9 -20.9186 12.9659
    endloop
  endfacet
  facet normal 0.636364 0.771389 -0
    outer loop
      vertex 11.25 -22.7747 0.367187
      vertex 9 -20.9186 12.9659
      vertex 11.25 -22.7747 12.6328
    endloop
  endfacet
  facet normal 0.636366 0.771387 -3.3592e-006
    outer loop
      vertex 10.7588 -22.3695 0.0340748
      vertex 11.25 -22.7747 0.367187
      vertex 11.2071 -22.7393 0.292893
    endloop
  endfacet
  facet normal 0.636363 0.771389 2.3467e-006
    outer loop
      vertex 11.25 -22.7747 0.367187
      vertex 10.7588 -22.3695 0.0340748
      vertex 9 -20.9186 0.0340748
    endloop
  endfacet
  facet normal 0.636364 0.771389 0
    outer loop
      vertex 11.25 -22.7747 0.367187
      vertex 9 -20.9186 0.0340748
      vertex 9 -20.9186 12.9659
    endloop
  endfacet
  facet normal 1 -0 0
    outer loop
      vertex 11.25 -23 12.6328
      vertex 11.25 -22.7747 0.367187
      vertex 11.25 -22.7747 12.6328
    endloop
  endfacet
  facet normal 1 0 0
    outer loop
      vertex 11.25 -22.7747 0.367187
      vertex 11.25 -23 12.6328
      vertex 11.25 -23 0.367187
    endloop
  endfacet
  facet normal 1 -0 0
    outer loop
      vertex 11.25 22.7747 12.6328
      vertex 11.25 23 0.367187
      vertex 11.25 23 12.6328
    endloop
  endfacet
  facet normal 1 0 0
    outer loop
      vertex 11.25 23 0.367187
      vertex 11.25 22.7747 12.6328
      vertex 11.25 22.7747 0.367187
    endloop
  endfacet
  facet normal 0 1 -0
    outer loop
      vertex 11.4659 -23 0.741181
      vertex 11.25 -23 12.6328
      vertex 11.4659 -23 12.2588
    endloop
  endfacet
  facet normal 0 1 0
    outer loop
      vertex 11.25 -23 12.6328
      vertex 11.4659 -23 0.741181
      vertex 11.25 -23 0.367187
    endloop
  endfacet
  facet normal 0 -1 0
    outer loop
      vertex 11.25 23 12.6328
      vertex 11.4659 23 0.741181
      vertex 11.4659 23 12.2588
    endloop
  endfacet
  facet normal -0 -1 0
    outer loop
      vertex 11.4659 23 0.741181
      vertex 11.25 23 12.6328
      vertex 11.25 23 0.367187
    endloop
  endfacet
  facet normal 0.636364 -0.771389 0
    outer loop
      vertex 1.0987 21 0.0340748
      vertex 3.25 22.7747 12.9659
      vertex 1.0987 21 12.9659
    endloop
  endfacet
  facet normal 0.636364 -0.771389 0
    outer loop
      vertex 3.25 22.7747 12.9659
      vertex 1.0987 21 0.0340748
      vertex 3.25 22.7747 0.0340748
    endloop
  endfacet
  facet normal 0.636364 0.771389 -0
    outer loop
      vertex 3.25 -22.7747 0.0340748
      vertex 1.0987 -21 12.9659
      vertex 3.25 -22.7747 12.9659
    endloop
  endfacet
  facet normal 0.636364 0.771389 0
    outer loop
      vertex 1.0987 -21 12.9659
      vertex 3.25 -22.7747 0.0340748
      vertex 1.0987 -21 0.0340748
    endloop
  endfacet
  facet normal 1 -0 0
    outer loop
      vertex 3.25 -23 12.9659
      vertex 3.25 -22.7747 0.0340748
      vertex 3.25 -22.7747 12.9659
    endloop
  endfacet
  facet normal 1 0 0
    outer loop
      vertex 3.25 -22.7747 0.0340748
      vertex 3.25 -23 12.9659
      vertex 3.25 -23 0.0340748
    endloop
  endfacet
  facet normal 1 -0 0
    outer loop
      vertex 3.25 22.7747 12.9659
      vertex 3.25 23 0.0340748
      vertex 3.25 23 12.9659
    endloop
  endfacet
  facet normal 1 0 0
    outer loop
      vertex 3.25 23 0.0340748
      vertex 3.25 22.7747 12.9659
      vertex 3.25 22.7747 0.0340748
    endloop
  endfacet
  facet normal -1 0 0
    outer loop
      vertex 5.75 -23 0.0340748
      vertex 5.75 -21 12.9659
      vertex 5.75 -21 0.0340748
    endloop
  endfacet
  facet normal -1 -0 0
    outer loop
      vertex 5.75 -21 12.9659
      vertex 5.75 -23 0.0340748
      vertex 5.75 -23 12.9659
    endloop
  endfacet
  facet normal -1 0 0
    outer loop
      vertex 5.75 21 0.0340748
      vertex 5.75 23 12.9659
      vertex 5.75 23 0.0340748
    endloop
  endfacet
  facet normal -1 -0 0
    outer loop
      vertex 5.75 23 12.9659
      vertex 5.75 21 0.0340748
      vertex 5.75 21 12.9659
    endloop
  endfacet
  facet normal 0 1 -0
    outer loop
      vertex 5.75 -23 0.0340748
      vertex 3.25 -23 12.9659
      vertex 5.75 -23 12.9659
    endloop
  endfacet
  facet normal 0 1 0
    outer loop
      vertex 3.25 -23 12.9659
      vertex 5.75 -23 0.0340748
      vertex 3.25 -23 0.0340748
    endloop
  endfacet
  facet normal 0 -1 0
    outer loop
      vertex 3.25 23 0.0340748
      vertex 5.75 23 12.9659
      vertex 3.25 23 12.9659
    endloop
  endfacet
  facet normal 0 -1 -0
    outer loop
      vertex 5.75 23 12.9659
      vertex 3.25 23 0.0340748
      vertex 5.75 23 0.0340748
    endloop
  endfacet
  facet normal 1 -0 0
    outer loop
      vertex -1 -23 12.9659
      vertex -1 -21 0.0340748
      vertex -1 -21 12.9659
    endloop
  endfacet
  facet normal 1 0 0
    outer loop
      vertex -1 -21 0.0340748
      vertex -1 -23 12.9659
      vertex -1 -23 0.0340748
    endloop
  endfacet
  facet normal 1 -0 0
    outer loop
      vertex -1 21 12.9659
      vertex -1 23 0.0340748
      vertex -1 23 12.9659
    endloop
  endfacet
  facet normal 1 0 0
    outer loop
      vertex -1 23 0.0340748
      vertex -1 21 12.9659
      vertex -1 21 0.0340748
    endloop
  endfacet
  facet normal 0 -1 0
    outer loop
      vertex -1 23 0.0340748
      vertex 1 23 12.9659
      vertex -1 23 12.9659
    endloop
  endfacet
  facet normal 0 -1 -0
    outer loop
      vertex 1 23 12.9659
      vertex -1 23 0.0340748
      vertex 1 23 0.0340748
    endloop
  endfacet
  facet normal -1 0 0
    outer loop
      vertex 1 21 0.0340748
      vertex 1 23 12.9659
      vertex 1 23 0.0340748
    endloop
  endfacet
  facet normal -1 -0 0
    outer loop
      vertex 1 23 12.9659
      vertex 1 21 0.0340748
      vertex 1 21 12.9659
    endloop
  endfacet
  facet normal -1 0 0
    outer loop
      vertex 1 -23 0.0340748
      vertex 1 -21 12.9659
      vertex 1 -21 0.0340748
    endloop
  endfacet
  facet normal -1 -0 0
    outer loop
      vertex 1 -21 12.9659
      vertex 1 -23 0.0340748
      vertex 1 -23 12.9659
    endloop
  endfacet
  facet normal 0 1 -0
    outer loop
      vertex 1 -23 0.0340748
      vertex -1 -23 12.9659
      vertex 1 -23 12.9659
    endloop
  endfacet
  facet normal 0 1 0
    outer loop
      vertex -1 -23 12.9659
      vertex 1 -23 0.0340748
      vertex -1 -23 0.0340748
    endloop
  endfacet
  facet normal 1 -0 0
    outer loop
      vertex -3.25 -21 12.9659
      vertex -3.25 21 0.0340748
      vertex -3.25 21 12.9659
    endloop
  endfacet
  facet normal 1 0 0
    outer loop
      vertex -3.25 21 0.0340748
      vertex -3.25 -21 12.9659
      vertex -3.25 -21 0.0340748
    endloop
  endfacet
  facet normal 0 -1 0
    outer loop
      vertex 5.75 21 0.0340748
      vertex 7 21 12.9659
      vertex 5.75 21 12.9659
    endloop
  endfacet
  facet normal 0 -1 -0
    outer loop
      vertex 7 21 12.9659
      vertex 5.75 21 0.0340748
      vertex 7 21 0.0340748
    endloop
  endfacet
  facet normal 0 -1 0
    outer loop
      vertex 1 21 0.0340748
      vertex 1.0987 21 12.9659
      vertex 1 21 12.9659
    endloop
  endfacet
  facet normal 0 -1 -0
    outer loop
      vertex 1.0987 21 12.9659
      vertex 1 21 0.0340748
      vertex 1.0987 21 0.0340748
    endloop
  endfacet
  facet normal 0 -1 0
    outer loop
      vertex -3.25 21 0.0340748
      vertex -1 21 12.9659
      vertex -3.25 21 12.9659
    endloop
  endfacet
  facet normal 0 -1 -0
    outer loop
      vertex -1 21 12.9659
      vertex -3.25 21 0.0340748
      vertex -1 21 0.0340748
    endloop
  endfacet
  facet normal 0 1 -0
    outer loop
      vertex 7 -21 0.0340748
      vertex 5.75 -21 12.9659
      vertex 7 -21 12.9659
    endloop
  endfacet
  facet normal 0 1 0
    outer loop
      vertex 5.75 -21 12.9659
      vertex 7 -21 0.0340748
      vertex 5.75 -21 0.0340748
    endloop
  endfacet
  facet normal 0 1 -0
    outer loop
      vertex 1.0987 -21 0.0340748
      vertex 1 -21 12.9659
      vertex 1.0987 -21 12.9659
    endloop
  endfacet
  facet normal 0 1 0
    outer loop
      vertex 1 -21 12.9659
      vertex 1.0987 -21 0.0340748
      vertex 1 -21 0.0340748
    endloop
  endfacet
  facet normal 0 1 -0
    outer loop
      vertex -1 -21 0.0340748
      vertex -3.25 -21 12.9659
      vertex -1 -21 12.9659
    endloop
  endfacet
  facet normal 0 1 0
    outer loop
      vertex -3.25 -21 12.9659
      vertex -1 -21 0.0340748
      vertex -3.25 -21 0.0340748
    endloop
  endfacet
  facet normal 1 -0 0
    outer loop
      vertex 7 -23 12.9659
      vertex 7 -21 0.0340748
      vertex 7 -21 12.9659
    endloop
  endfacet
  facet normal 1 0 0
    outer loop
      vertex 7 -21 0.0340748
      vertex 7 -23 12.9659
      vertex 7 -23 0.0340748
    endloop
  endfacet
  facet normal 1 -0 0
    outer loop
      vertex 7 21 12.9659
      vertex 7 23 0.0340748
      vertex 7 23 12.9659
    endloop
  endfacet
  facet normal 1 0 0
    outer loop
      vertex 7 23 0.0340748
      vertex 7 21 12.9659
      vertex 7 21 0.0340748
    endloop
  endfacet
  facet normal -1 0 0
    outer loop
      vertex 9 -23 0.0340748
      vertex 9 -20.9186 12.9659
      vertex 9 -20.9186 0.0340748
    endloop
  endfacet
  facet normal -1 -0 0
    outer loop
      vertex 9 -20.9186 12.9659
      vertex 9 -23 0.0340748
      vertex 9 -23 12.9659
    endloop
  endfacet
  facet normal -1 0 0
    outer loop
      vertex 9 20.9186 0.0340748
      vertex 9 23 12.9659
      vertex 9 23 0.0340748
    endloop
  endfacet
  facet normal -1 -0 0
    outer loop
      vertex 9 23 12.9659
      vertex 9 20.9186 0.0340748
      vertex 9 20.9186 12.9659
    endloop
  endfacet
  facet normal 0 1 -0
    outer loop
      vertex 9 -23 0.0340748
      vertex 7 -23 12.9659
      vertex 9 -23 12.9659
    endloop
  endfacet
  facet normal 0 1 0
    outer loop
      vertex 7 -23 12.9659
      vertex 9 -23 0.0340748
      vertex 7 -23 0.0340748
    endloop
  endfacet
  facet normal 0 -1 0
    outer loop
      vertex 7 23 0.0340748
      vertex 9 23 12.9659
      vertex 7 23 12.9659
    endloop
  endfacet
  facet normal 0 -1 -0
    outer loop
      vertex 9 23 12.9659
      vertex 7 23 0.0340748
      vertex 9 23 0.0340748
    endloop
  endfacet
  facet normal 0.858357 -0.132788 -0.495571
    outer loop
      vertex 11.2071 -23.8536 0.387628
      vertex 11.2071 -23.5 0.292893
      vertex 11.4659 -23.5 0.741181
    endloop
  endfacet
  facet normal 0 -1 0
    outer loop
      vertex -4.75882 -24.4659 1
      vertex 10.7588 -24.4659 12
      vertex -4.75882 -24.4659 12
    endloop
  endfacet
  facet normal 0 -1 -0
    outer loop
      vertex 10.7588 -24.4659 12
      vertex -4.75882 -24.4659 1
      vertex 10.7588 -24.4659 1
    endloop
  endfacet
  facet normal 0 0.707108 -0.707106
    outer loop
      vertex 10.7588 23.983 0.163485
      vertex -4.75882 24.3365 0.517037
      vertex 10.7588 24.3365 0.517037
    endloop
  endfacet
  facet normal 0 0.707108 -0.707106
    outer loop
      vertex -4.75882 24.3365 0.517037
      vertex 10.7588 23.983 0.163485
      vertex -4.75882 23.983 0.163485
    endloop
  endfacet
  facet normal -0.487056 -0.843611 0.226045
    outer loop
      vertex -5.20711 -24.2071 12
      vertex -4.75882 -24.4659 12
      vertex -5.20711 -24.1124 12.3536
    endloop
  endfacet
  facet normal 0 -0.965926 -0.25882
    outer loop
      vertex -4.75882 -24.3365 0.517037
      vertex 10.7588 -24.4659 1
      vertex -4.75882 -24.4659 1
    endloop
  endfacet
  facet normal 0 -0.965926 -0.25882
    outer loop
      vertex 10.7588 -24.4659 1
      vertex -4.75882 -24.3365 0.517037
      vertex 10.7588 -24.3365 0.517037
    endloop
  endfacet
  facet normal -0.858357 0.132789 0.49557
    outer loop
      vertex -5.20711 23.8536 12.6124
      vertex -5.46593 23.6294 12.2241
      vertex -5.46593 23.5 12.2588
    endloop
  endfacet
  facet normal 0.487057 -0.226045 -0.843611
    outer loop
      vertex 10.7588 -23.983 0.163485
      vertex 10.7588 -23.5 0.0340748
      vertex 11.2071 -23.8536 0.387628
    endloop
  endfacet
  facet normal -0.487057 -0.226045 0.843611
    outer loop
      vertex -4.75882 -23.5 12.9659
      vertex -5.20711 -23.8536 12.6124
      vertex -4.75882 -23.983 12.8365
    endloop
  endfacet
  facet normal 0.858357 0.132788 -0.495571
    outer loop
      vertex 11.4659 23.5 0.741181
      vertex 11.2071 23.5 0.292893
      vertex 11.2071 23.8536 0.387628
    endloop
  endfacet
  facet normal 0 0 1
    outer loop
      vertex 10.7588 23.5 12.9659
      vertex 9 23 12.9659
      vertex 10.7588 22.3695 12.9659
    endloop
  endfacet
  facet normal 0 0 1
    outer loop
      vertex 10.7588 23.5 12.9659
      vertex 7 23 12.9659
      vertex 9 23 12.9659
    endloop
  endfacet
  facet normal 0 0 1
    outer loop
      vertex 7 23 12.9659
      vertex 5.75 23 12.9659
      vertex 7 21 12.9659
    endloop
  endfacet
  facet normal 0 0 1
    outer loop
      vertex 10.7588 23.5 12.9659
      vertex 5.75 23 12.9659
      vertex 7 23 12.9659
    endloop
  endfacet
  facet normal 0 0 1
    outer loop
      vertex 10.7588 23.5 12.9659
      vertex 3.25 23 12.9659
      vertex 5.75 23 12.9659
    endloop
  endfacet
  facet normal -0 0 1
    outer loop
      vertex 1 23 12.9659
      vertex 3.25 22.7747 12.9659
      vertex 3.25 23 12.9659
    endloop
  endfacet
  facet normal 0 0 1
    outer loop
      vertex 3.25 22.7747 12.9659
      vertex 1 23 12.9659
      vertex 1.0987 21 12.9659
    endloop
  endfacet
  facet normal -0 0 1
    outer loop
      vertex -4.75882 23.5 12.9659
      vertex 3.25 23 12.9659
      vertex 10.7588 23.5 12.9659
    endloop
  endfacet
  facet normal 0 0 1
    outer loop
      vertex 3.25 23 12.9659
      vertex -4.75882 23.5 12.9659
      vertex 1 23 12.9659
    endloop
  endfacet
  facet normal 0 0 1
    outer loop
      vertex -1 23 12.9659
      vertex -3.25 21 12.9659
      vertex -1 21 12.9659
    endloop
  endfacet
  facet normal 0 0 1
    outer loop
      vertex -3.25 21 12.9659
      vertex -4.75882 23.5 12.9659
      vertex -3.25 -21 12.9659
    endloop
  endfacet
  facet normal 0 0 1
    outer loop
      vertex -1 23 12.9659
      vertex -4.75882 23.5 12.9659
      vertex -3.25 21 12.9659
    endloop
  endfacet
  facet normal 0 0 1
    outer loop
      vertex 1 23 12.9659
      vertex -4.75882 23.5 12.9659
      vertex -1 23 12.9659
    endloop
  endfacet
  facet normal 0 0 1
    outer loop
      vertex 10.7588 22.3695 12.9659
      vertex 9 23 12.9659
      vertex 9 20.9186 12.9659
    endloop
  endfacet
  facet normal 0 0 1
    outer loop
      vertex 7 21 12.9659
      vertex 5.75 23 12.9659
      vertex 5.75 21 12.9659
    endloop
  endfacet
  facet normal 0 0 1
    outer loop
      vertex 1.0987 21 12.9659
      vertex 1 23 12.9659
      vertex 1 21 12.9659
    endloop
  endfacet
  facet normal 0 0 1
    outer loop
      vertex -1 -21 12.9659
      vertex -3.25 -21 12.9659
      vertex -1 -23 12.9659
    endloop
  endfacet
  facet normal 0 0 1
    outer loop
      vertex 1 -23 12.9659
      vertex 3.25 -22.7747 12.9659
      vertex 1.0987 -21 12.9659
    endloop
  endfacet
  facet normal 0 0 1
    outer loop
      vertex 7 -21 12.9659
      vertex 5.75 -21 12.9659
      vertex 7 -23 12.9659
    endloop
  endfacet
  facet normal 0 0 1
    outer loop
      vertex 9 -23 12.9659
      vertex 10.7588 -22.3695 12.9659
      vertex 9 -20.9186 12.9659
    endloop
  endfacet
  facet normal 0 0 1
    outer loop
      vertex 10.7588 -22.3695 12.9659
      vertex 9 -23 12.9659
      vertex 10.7588 -23.5 12.9659
    endloop
  endfacet
  facet normal -0 0 1
    outer loop
      vertex 7 -23 12.9659
      vertex 10.7588 -23.5 12.9659
      vertex 9 -23 12.9659
    endloop
  endfacet
  facet normal 0 0 1
    outer loop
      vertex 5.75 -23 12.9659
      vertex 7 -23 12.9659
      vertex 5.75 -21 12.9659
    endloop
  endfacet
  facet normal -0 0 1
    outer loop
      vertex 5.75 -23 12.9659
      vertex 10.7588 -23.5 12.9659
      vertex 7 -23 12.9659
    endloop
  endfacet
  facet normal -0 0 1
    outer loop
      vertex 3.25 -23 12.9659
      vertex 10.7588 -23.5 12.9659
      vertex 5.75 -23 12.9659
    endloop
  endfacet
  facet normal 0 0 1
    outer loop
      vertex 1 -23 12.9659
      vertex 1.0987 -21 12.9659
      vertex 1 -21 12.9659
    endloop
  endfacet
  facet normal 0 0 1
    outer loop
      vertex 3.25 -22.7747 12.9659
      vertex 1 -23 12.9659
      vertex 3.25 -23 12.9659
    endloop
  endfacet
  facet normal 0 0 1
    outer loop
      vertex -4.75882 -23.5 12.9659
      vertex 3.25 -23 12.9659
      vertex 1 -23 12.9659
    endloop
  endfacet
  facet normal 0 0 1
    outer loop
      vertex -4.75882 -23.5 12.9659
      vertex 1 -23 12.9659
      vertex -1 -23 12.9659
    endloop
  endfacet
  facet normal 0 0 1
    outer loop
      vertex 3.25 -23 12.9659
      vertex -4.75882 -23.5 12.9659
      vertex 10.7588 -23.5 12.9659
    endloop
  endfacet
  facet normal 0 0 1
    outer loop
      vertex -3.25 -21 12.9659
      vertex -4.75882 -23.5 12.9659
      vertex -1 -23 12.9659
    endloop
  endfacet
  facet normal 0 0 1
    outer loop
      vertex -4.75882 -23.5 12.9659
      vertex -3.25 -21 12.9659
      vertex -4.75882 23.5 12.9659
    endloop
  endfacet
  facet normal 0 -0.258819 0.965926
    outer loop
      vertex -4.75882 -23.5 12.9659
      vertex 10.7588 -23.983 12.8365
      vertex 10.7588 -23.5 12.9659
    endloop
  endfacet
  facet normal 0 -0.258819 0.965926
    outer loop
      vertex 10.7588 -23.983 12.8365
      vertex -4.75882 -23.5 12.9659
      vertex -4.75882 -23.983 12.8365
    endloop
  endfacet
  facet normal 0 1 -0
    outer loop
      vertex 10.7588 24.4659 1
      vertex -4.75882 24.4659 12
      vertex 10.7588 24.4659 12
    endloop
  endfacet
  facet normal 0 1 0
    outer loop
      vertex -4.75882 24.4659 12
      vertex 10.7588 24.4659 1
      vertex -4.75882 24.4659 1
    endloop
  endfacet
  facet normal -0.858357 -0.495571 0.132788
    outer loop
      vertex -5.46593 -23.7588 12
      vertex -5.20711 -24.2071 12
      vertex -5.20711 -24.1124 12.3536
    endloop
  endfacet
  facet normal -0.858357 0.49557 -0.13279
    outer loop
      vertex -5.46593 23.7588 1
      vertex -5.20711 24.1124 0.646447
      vertex -5.46593 23.7241 0.870591
    endloop
  endfacet
  facet normal -0.487057 -0.617566 -0.617566
    outer loop
      vertex -5.20711 -23.8536 0.387628
      vertex -4.75882 -24.3365 0.517037
      vertex -5.20711 -24.1124 0.646447
    endloop
  endfacet
  facet normal -0.487058 -0.617567 -0.617565
    outer loop
      vertex -4.75882 -24.3365 0.517037
      vertex -5.20711 -23.8536 0.387628
      vertex -4.75882 -23.983 0.163485
    endloop
  endfacet
  facet normal -0.487057 0.226045 0.843611
    outer loop
      vertex -4.75882 23.983 12.8365
      vertex -5.20711 23.8536 12.6124
      vertex -4.75882 23.5 12.9659
    endloop
  endfacet
  facet normal 0.487057 -0.226045 0.843611
    outer loop
      vertex 10.7588 -23.983 12.8365
      vertex 11.2071 -23.8536 12.6124
      vertex 10.7588 -23.5 12.9659
    endloop
  endfacet
  facet normal 0.499999 0 -0.866026
    outer loop
      vertex 10.7588 -23.5 0.0340748
      vertex 11.2071 -22.7393 0.292893
      vertex 11.2071 -23.5 0.292893
    endloop
  endfacet
  facet normal 0.499999 0 -0.866026
    outer loop
      vertex 11.2071 -22.7393 0.292893
      vertex 10.7588 -23.5 0.0340748
      vertex 10.7588 -22.3695 0.0340748
    endloop
  endfacet
  facet normal 0.499999 0 -0.866026
    outer loop
      vertex 10.7588 23.5 0.0340748
      vertex 11.2071 22.7393 0.292893
      vertex 10.7588 22.3695 0.0340748
    endloop
  endfacet
  facet normal 0.499999 0 -0.866026
    outer loop
      vertex 11.2071 22.7393 0.292893
      vertex 10.7588 23.5 0.0340748
      vertex 11.2071 23.5 0.292893
    endloop
  endfacet
  facet normal -1 0 0
    outer loop
      vertex -5.46593 23.5 0.741181
      vertex -5.46593 23.7588 1
      vertex -5.46593 23.7241 0.870591
    endloop
  endfacet
  facet normal -1 -0 0
    outer loop
      vertex -5.46593 23.7588 1
      vertex -5.46593 23.5 0.741181
      vertex -5.46593 23.7588 12
    endloop
  endfacet
  facet normal -1 0 0
    outer loop
      vertex -5.46593 23.5 0.741181
      vertex -5.46593 23.7241 0.870591
      vertex -5.46593 23.6294 0.775857
    endloop
  endfacet
  facet normal -1 0 0
    outer loop
      vertex -5.46593 23.5 12.2588
      vertex -5.46593 23.7588 12
      vertex -5.46593 23.5 0.741181
    endloop
  endfacet
  facet normal -1 0 0
    outer loop
      vertex -5.46593 23.7588 12
      vertex -5.46593 23.5 12.2588
      vertex -5.46593 23.7241 12.1294
    endloop
  endfacet
  facet normal -1 0 0
    outer loop
      vertex -5.46593 23.7241 12.1294
      vertex -5.46593 23.5 12.2588
      vertex -5.46593 23.6294 12.2241
    endloop
  endfacet
  facet normal -1 0 0
    outer loop
      vertex -5.46593 23.5 0.741181
      vertex -5.46593 6.25193 3.91037
      vertex -5.46593 23.5 12.2588
    endloop
  endfacet
  facet normal -1 0 -0
    outer loop
      vertex -5.46593 6.25193 3.91037
      vertex -5.46593 23.5 0.741181
      vertex -5.46593 3.08274 0.741181
    endloop
  endfacet
  facet normal -1 0 0
    outer loop
      vertex -5.46593 6.25193 9.08963
      vertex -5.46593 23.5 12.2588
      vertex -5.46593 6.25193 3.91037
    endloop
  endfacet
  facet normal -1 -0 0
    outer loop
      vertex -5.46593 23.5 12.2588
      vertex -5.46593 6.25193 9.08963
      vertex -5.46593 3.08274 12.2588
    endloop
  endfacet
  facet normal -1 -0 0
    outer loop
      vertex -5.46593 -6.25193 3.91037
      vertex -5.46593 -23.5 0.741181
      vertex -5.46593 -6.25193 9.08963
    endloop
  endfacet
  facet normal -1 0 0
    outer loop
      vertex -5.46593 -23.5 0.741181
      vertex -5.46593 -6.25193 3.91037
      vertex -5.46593 -3.08274 0.741181
    endloop
  endfacet
  facet normal -1 0 0
    outer loop
      vertex -5.46593 -23.5 12.2588
      vertex -5.46593 -6.25193 9.08963
      vertex -5.46593 -23.5 0.741181
    endloop
  endfacet
  facet normal -1 0 0
    outer loop
      vertex -5.46593 -6.25193 9.08963
      vertex -5.46593 -23.5 12.2588
      vertex -5.46593 -3.08274 12.2588
    endloop
  endfacet
  facet normal -1 0 0
    outer loop
      vertex -5.46593 -23.7588 1
      vertex -5.46593 -23.5 0.741181
      vertex -5.46593 -23.6294 0.775857
    endloop
  endfacet
  facet normal -1 0 0
    outer loop
      vertex -5.46593 -23.5 0.741181
      vertex -5.46593 -23.7588 1
      vertex -5.46593 -23.5 12.2588
    endloop
  endfacet
  facet normal -1 0 0
    outer loop
      vertex -5.46593 -23.7588 1
      vertex -5.46593 -23.6294 0.775857
      vertex -5.46593 -23.7241 0.870591
    endloop
  endfacet
  facet normal -1 0 0
    outer loop
      vertex -5.46593 -23.7588 12
      vertex -5.46593 -23.5 12.2588
      vertex -5.46593 -23.7588 1
    endloop
  endfacet
  facet normal -1 0 0
    outer loop
      vertex -5.46593 -23.5 12.2588
      vertex -5.46593 -23.7588 12
      vertex -5.46593 -23.6294 12.2241
    endloop
  endfacet
  facet normal -1 0 0
    outer loop
      vertex -5.46593 -23.6294 12.2241
      vertex -5.46593 -23.7588 12
      vertex -5.46593 -23.7241 12.1294
    endloop
  endfacet
  facet normal -0 0.258819 0.965926
    outer loop
      vertex -4.75882 23.983 12.8365
      vertex 10.7588 23.5 12.9659
      vertex 10.7588 23.983 12.8365
    endloop
  endfacet
  facet normal 0 0.258819 0.965926
    outer loop
      vertex 10.7588 23.5 12.9659
      vertex -4.75882 23.983 12.8365
      vertex -4.75882 23.5 12.9659
    endloop
  endfacet
  facet normal 0.499998 0.866027 -0
    outer loop
      vertex 11.2071 24.2071 1
      vertex 10.7588 24.4659 12
      vertex 11.2071 24.2071 12
    endloop
  endfacet
  facet normal 0.499998 0.866027 0
    outer loop
      vertex 10.7588 24.4659 12
      vertex 11.2071 24.2071 1
      vertex 10.7588 24.4659 1
    endloop
  endfacet
  facet normal 0.499999 0 0.866026
    outer loop
      vertex 10.7588 23.5 12.9659
      vertex 11.2071 22.7393 12.7071
      vertex 11.2071 23.5 12.7071
    endloop
  endfacet
  facet normal 0.499999 0 0.866026
    outer loop
      vertex 11.2071 22.7393 12.7071
      vertex 10.7588 23.5 12.9659
      vertex 10.7588 22.3695 12.9659
    endloop
  endfacet
  facet normal 0.499999 -0 0.866026
    outer loop
      vertex 10.7588 -23.5 12.9659
      vertex 11.2071 -22.7393 12.7071
      vertex 10.7588 -22.3695 12.9659
    endloop
  endfacet
  facet normal 0.499999 0 0.866026
    outer loop
      vertex 11.2071 -22.7393 12.7071
      vertex 10.7588 -23.5 12.9659
      vertex 11.2071 -23.5 12.7071
    endloop
  endfacet
  facet normal -0.487056 0.843611 -0.226046
    outer loop
      vertex -4.75882 24.4659 1
      vertex -4.75882 24.3365 0.517037
      vertex -5.20711 24.1124 0.646447
    endloop
  endfacet
  facet normal -0.858357 0.362783 0.362783
    outer loop
      vertex -5.46593 23.7241 12.1294
      vertex -5.20711 23.8536 12.6124
      vertex -5.20711 24.1124 12.3536
    endloop
  endfacet
  facet normal -0.858357 0.362783 0.362783
    outer loop
      vertex -5.20711 23.8536 12.6124
      vertex -5.46593 23.7241 12.1294
      vertex -5.46593 23.6294 12.2241
    endloop
  endfacet
  facet normal -0.499999 0 -0.866026
    outer loop
      vertex -4.75882 -23.5 0.0340748
      vertex -5 -2.81926 0.173321
      vertex -4.75882 23.5 0.0340748
    endloop
  endfacet
  facet normal -0.499999 1.24507e-010 -0.866026
    outer loop
      vertex -5.20711 -23.5 0.292893
      vertex -5 -2.81926 0.173321
      vertex -4.75882 -23.5 0.0340748
    endloop
  endfacet
  facet normal -0.499999 0 -0.866026
    outer loop
      vertex -5 -2.81926 0.173321
      vertex -5.20711 -23.5 0.292893
      vertex -5.20711 -2.80353 0.292893
    endloop
  endfacet
  facet normal -0.499999 -0 -0.866026
    outer loop
      vertex -5 2.81926 0.173321
      vertex -4.75882 23.5 0.0340748
      vertex -5 -2.81926 0.173321
    endloop
  endfacet
  facet normal -0.499999 -0 -0.866026
    outer loop
      vertex -5.20711 23.5 0.292893
      vertex -5 2.81926 0.173321
      vertex -5.20711 2.80353 0.292893
    endloop
  endfacet
  facet normal -0.499999 -1.24507e-010 -0.866026
    outer loop
      vertex -5 2.81926 0.173321
      vertex -5.20711 23.5 0.292893
      vertex -4.75882 23.5 0.0340748
    endloop
  endfacet
  facet normal -0.5 0 0.866026
    outer loop
      vertex -4.75882 23.5 12.9659
      vertex -5 2.81926 12.8267
      vertex -4.75882 -23.5 12.9659
    endloop
  endfacet
  facet normal -0.499999 -6.36451e-009 0.866026
    outer loop
      vertex -5.20711 23.5 12.7071
      vertex -5 2.81926 12.8267
      vertex -4.75882 23.5 12.9659
    endloop
  endfacet
  facet normal -0.499999 0 0.866026
    outer loop
      vertex -5 2.81926 12.8267
      vertex -5.20711 23.5 12.7071
      vertex -5.20711 2.80353 12.7071
    endloop
  endfacet
  facet normal -0.5 0 0.866026
    outer loop
      vertex -5 -2.81926 12.8267
      vertex -4.75882 -23.5 12.9659
      vertex -5 2.81926 12.8267
    endloop
  endfacet
  facet normal -0.499999 0 0.866026
    outer loop
      vertex -5.20711 -23.5 12.7071
      vertex -5 -2.81926 12.8267
      vertex -5.20711 -2.80353 12.7071
    endloop
  endfacet
  facet normal -0.499999 6.36451e-009 0.866026
    outer loop
      vertex -5 -2.81926 12.8267
      vertex -5.20711 -23.5 12.7071
      vertex -4.75882 -23.5 12.9659
    endloop
  endfacet
  facet normal 0 -0.965926 0.25882
    outer loop
      vertex -4.75882 -24.4659 12
      vertex 10.7588 -24.3365 12.483
      vertex -4.75882 -24.3365 12.483
    endloop
  endfacet
  facet normal 0 -0.965926 0.25882
    outer loop
      vertex 10.7588 -24.3365 12.483
      vertex -4.75882 -24.4659 12
      vertex 10.7588 -24.4659 12
    endloop
  endfacet
  facet normal 0.858357 -0.362783 -0.362783
    outer loop
      vertex 11.4659 -23.7241 0.870591
      vertex 11.2071 -23.8536 0.387628
      vertex 11.4659 -23.6294 0.775857
    endloop
  endfacet
  facet normal 0.858357 -0.362783 -0.362783
    outer loop
      vertex 11.2071 -23.8536 0.387628
      vertex 11.4659 -23.7241 0.870591
      vertex 11.2071 -24.1124 0.646447
    endloop
  endfacet
  facet normal 0.487058 -0.617567 0.617565
    outer loop
      vertex 10.7588 -24.3365 12.483
      vertex 11.2071 -23.8536 12.6124
      vertex 10.7588 -23.983 12.8365
    endloop
  endfacet
  facet normal 0.487057 -0.617566 0.617566
    outer loop
      vertex 11.2071 -23.8536 12.6124
      vertex 10.7588 -24.3365 12.483
      vertex 11.2071 -24.1124 12.3536
    endloop
  endfacet
  facet normal 0.858357 -0.132788 0.495571
    outer loop
      vertex 11.2071 -23.8536 12.6124
      vertex 11.4659 -23.5 12.2588
      vertex 11.2071 -23.5 12.7071
    endloop
  endfacet
  facet normal 0.487058 -0.226044 0.843611
    outer loop
      vertex 10.7588 -23.5 12.9659
      vertex 11.2071 -23.8536 12.6124
      vertex 11.2071 -23.5 12.7071
    endloop
  endfacet
  facet normal 0.487056 0.843611 -0.226046
    outer loop
      vertex 11.2071 24.1124 0.646447
      vertex 10.7588 24.3365 0.517037
      vertex 10.7588 24.4659 1
    endloop
  endfacet
  facet normal 0 0.965926 -0.25882
    outer loop
      vertex 10.7588 24.3365 0.517037
      vertex -4.75882 24.4659 1
      vertex 10.7588 24.4659 1
    endloop
  endfacet
  facet normal 0 0.965926 -0.25882
    outer loop
      vertex -4.75882 24.4659 1
      vertex 10.7588 24.3365 0.517037
      vertex -4.75882 24.3365 0.517037
    endloop
  endfacet
  facet normal 0 0.258819 -0.965926
    outer loop
      vertex -4.75882 23.5 0.0340748
      vertex 10.7588 23.983 0.163485
      vertex 10.7588 23.5 0.0340748
    endloop
  endfacet
  facet normal 0 0.258819 -0.965926
    outer loop
      vertex 10.7588 23.983 0.163485
      vertex -4.75882 23.5 0.0340748
      vertex -4.75882 23.983 0.163485
    endloop
  endfacet
  facet normal -0.487057 0.617566 -0.617566
    outer loop
      vertex -4.75882 24.3365 0.517037
      vertex -5.20711 23.8536 0.387628
      vertex -5.20711 24.1124 0.646447
    endloop
  endfacet
  facet normal -0.487058 0.617567 -0.617565
    outer loop
      vertex -5.20711 23.8536 0.387628
      vertex -4.75882 24.3365 0.517037
      vertex -4.75882 23.983 0.163485
    endloop
  endfacet
  facet normal -0.487056 -0.843611 -0.226046
    outer loop
      vertex -5.20711 -24.1124 0.646447
      vertex -4.75882 -24.3365 0.517037
      vertex -4.75882 -24.4659 1
    endloop
  endfacet
  facet normal -0.487057 -0.226045 -0.843611
    outer loop
      vertex -5.20711 -23.8536 0.387628
      vertex -4.75882 -23.5 0.0340748
      vertex -4.75882 -23.983 0.163485
    endloop
  endfacet
  facet normal 0.858357 0.132789 0.49557
    outer loop
      vertex 11.4659 23.5 12.2588
      vertex 11.4659 23.6294 12.2241
      vertex 11.2071 23.8536 12.6124
    endloop
  endfacet
  facet normal -0.858357 -0.49557 0.13279
    outer loop
      vertex -5.46593 -23.7241 12.1294
      vertex -5.46593 -23.7588 12
      vertex -5.20711 -24.1124 12.3536
    endloop
  endfacet
  facet normal 0.487057 0.226045 0.843611
    outer loop
      vertex 10.7588 23.5 12.9659
      vertex 11.2071 23.8536 12.6124
      vertex 10.7588 23.983 12.8365
    endloop
  endfacet
  facet normal 0.487056 -0.843611 -0.226046
    outer loop
      vertex 10.7588 -24.4659 1
      vertex 10.7588 -24.3365 0.517037
      vertex 11.2071 -24.1124 0.646447
    endloop
  endfacet
  facet normal -0.487056 -0.843611 0.226046
    outer loop
      vertex -5.20711 -24.1124 12.3536
      vertex -4.75882 -24.4659 12
      vertex -4.75882 -24.3365 12.483
    endloop
  endfacet
  facet normal 0.866026 0 -0.499999
    outer loop
      vertex 11.4659 -23 0.741181
      vertex 11.4659 -23.5 0.741181
      vertex 11.25 -23 0.367187
    endloop
  endfacet
  facet normal 0.866026 0 -0.499999
    outer loop
      vertex 11.25 -23 0.367187
      vertex 11.2071 -22.7393 0.292893
      vertex 11.25 -22.7747 0.367187
    endloop
  endfacet
  facet normal 0.866026 0 -0.499999
    outer loop
      vertex 11.25 -23 0.367187
      vertex 11.2071 -23.5 0.292893
      vertex 11.2071 -22.7393 0.292893
    endloop
  endfacet
  facet normal 0.866026 9.74569e-009 -0.499999
    outer loop
      vertex 11.2071 -23.5 0.292893
      vertex 11.25 -23 0.367187
      vertex 11.4659 -23.5 0.741181
    endloop
  endfacet
  facet normal 0.866026 0 -0.499999
    outer loop
      vertex 11.25 23 0.367187
      vertex 11.4659 23.5 0.741181
      vertex 11.4659 23 0.741181
    endloop
  endfacet
  facet normal 0.866026 -9.74569e-009 -0.499999
    outer loop
      vertex 11.4659 23.5 0.741181
      vertex 11.25 23 0.367187
      vertex 11.2071 23.5 0.292893
    endloop
  endfacet
  facet normal 0.866026 0 -0.499999
    outer loop
      vertex 11.2071 22.7393 0.292893
      vertex 11.25 23 0.367187
      vertex 11.25 22.7747 0.367187
    endloop
  endfacet
  facet normal 0.866026 0 -0.499999
    outer loop
      vertex 11.25 23 0.367187
      vertex 11.2071 22.7393 0.292893
      vertex 11.2071 23.5 0.292893
    endloop
  endfacet
  facet normal 0.487056 -0.843611 0.226046
    outer loop
      vertex 10.7588 -24.3365 12.483
      vertex 10.7588 -24.4659 12
      vertex 11.2071 -24.1124 12.3536
    endloop
  endfacet
  facet normal 0.858357 0.132788 0.495571
    outer loop
      vertex 11.2071 23.5 12.7071
      vertex 11.4659 23.5 12.2588
      vertex 11.2071 23.8536 12.6124
    endloop
  endfacet
  facet normal 0.866027 0 0.499997
    outer loop
      vertex 11.2071 -22.7393 12.7071
      vertex 11.25 -23 12.6328
      vertex 11.25 -22.7747 12.6328
    endloop
  endfacet
  facet normal 0.866027 -0 0.499997
    outer loop
      vertex 11.2071 -23.5 12.7071
      vertex 11.25 -23 12.6328
      vertex 11.2071 -22.7393 12.7071
    endloop
  endfacet
  facet normal 0.866026 3.67373e-007 0.499999
    outer loop
      vertex 11.4659 -23.5 12.2588
      vertex 11.25 -23 12.6328
      vertex 11.2071 -23.5 12.7071
    endloop
  endfacet
  facet normal 0.866026 0 0.5
    outer loop
      vertex 11.25 -23 12.6328
      vertex 11.4659 -23.5 12.2588
      vertex 11.4659 -23 12.2588
    endloop
  endfacet
  facet normal 0.866026 -3.67373e-007 0.499999
    outer loop
      vertex 11.2071 23.5 12.7071
      vertex 11.25 23 12.6328
      vertex 11.4659 23.5 12.2588
    endloop
  endfacet
  facet normal 0.866027 -0 0.499997
    outer loop
      vertex 11.2071 22.7393 12.7071
      vertex 11.25 23 12.6328
      vertex 11.2071 23.5 12.7071
    endloop
  endfacet
  facet normal 0.866027 0 0.499997
    outer loop
      vertex 11.25 23 12.6328
      vertex 11.2071 22.7393 12.7071
      vertex 11.25 22.7747 12.6328
    endloop
  endfacet
  facet normal 0.866026 0 0.5
    outer loop
      vertex 11.4659 23.5 12.2588
      vertex 11.25 23 12.6328
      vertex 11.4659 23 12.2588
    endloop
  endfacet
  facet normal 0 -0.707108 0.707106
    outer loop
      vertex -4.75882 -24.3365 12.483
      vertex 10.7588 -23.983 12.8365
      vertex -4.75882 -23.983 12.8365
    endloop
  endfacet
  facet normal 0 -0.707108 0.707106
    outer loop
      vertex 10.7588 -23.983 12.8365
      vertex -4.75882 -24.3365 12.483
      vertex 10.7588 -24.3365 12.483
    endloop
  endfacet
  facet normal 0.487056 -0.843611 0.226045
    outer loop
      vertex 11.2071 -24.1124 12.3536
      vertex 10.7588 -24.4659 12
      vertex 11.2071 -24.2071 12
    endloop
  endfacet
  facet normal 0.487056 0.843611 -0.226045
    outer loop
      vertex 11.2071 24.2071 1
      vertex 11.2071 24.1124 0.646447
      vertex 10.7588 24.4659 1
    endloop
  endfacet
  facet normal 0.858357 0.132789 -0.49557
    outer loop
      vertex 11.4659 23.5 0.741181
      vertex 11.2071 23.8536 0.387628
      vertex 11.4659 23.6294 0.775857
    endloop
  endfacet
  facet normal -0.858357 0.132789 -0.49557
    outer loop
      vertex -5.46593 23.6294 0.775857
      vertex -5.20711 23.8536 0.387628
      vertex -5.46593 23.5 0.741181
    endloop
  endfacet
  facet normal 0.858357 0.495571 -0.132788
    outer loop
      vertex 11.4659 23.7588 1
      vertex 11.2071 24.1124 0.646447
      vertex 11.2071 24.2071 1
    endloop
  endfacet
  facet normal -0.858357 -0.132788 -0.495571
    outer loop
      vertex -5.46593 -23.5 0.741181
      vertex -5.20711 -23.5 0.292893
      vertex -5.20711 -23.8536 0.387628
    endloop
  endfacet
  facet normal -0.487056 -0.843611 -0.226045
    outer loop
      vertex -5.20711 -24.2071 1
      vertex -5.20711 -24.1124 0.646447
      vertex -4.75882 -24.4659 1
    endloop
  endfacet
  facet normal -0.499998 -0.866027 0
    outer loop
      vertex -5.20711 -24.2071 1
      vertex -4.75882 -24.4659 12
      vertex -5.20711 -24.2071 12
    endloop
  endfacet
  facet normal -0.499998 -0.866027 -0
    outer loop
      vertex -4.75882 -24.4659 12
      vertex -5.20711 -24.2071 1
      vertex -4.75882 -24.4659 1
    endloop
  endfacet
  facet normal 0.487058 0.226044 0.843611
    outer loop
      vertex 11.2071 23.5 12.7071
      vertex 11.2071 23.8536 12.6124
      vertex 10.7588 23.5 12.9659
    endloop
  endfacet
  facet normal -0.487058 -0.226044 0.843611
    outer loop
      vertex -5.20711 -23.5 12.7071
      vertex -5.20711 -23.8536 12.6124
      vertex -4.75882 -23.5 12.9659
    endloop
  endfacet
  facet normal -0.858357 -0.132788 0.495571
    outer loop
      vertex -5.20711 -23.5 12.7071
      vertex -5.46593 -23.5 12.2588
      vertex -5.20711 -23.8536 12.6124
    endloop
  endfacet
  facet normal -0.866026 0 0.499999
    outer loop
      vertex -5.46593 3.08274 12.2588
      vertex -5.20711 23.5 12.7071
      vertex -5.46593 23.5 12.2588
    endloop
  endfacet
  facet normal -0.866026 0 0.499999
    outer loop
      vertex -5.20711 23.5 12.7071
      vertex -5.46593 3.08274 12.2588
      vertex -5.20711 2.80353 12.7071
    endloop
  endfacet
  facet normal -0.866026 0 0.499999
    outer loop
      vertex -5.20711 -23.5 12.7071
      vertex -5.46593 -3.08274 12.2588
      vertex -5.46593 -23.5 12.2588
    endloop
  endfacet
  facet normal -0.866026 0 0.499999
    outer loop
      vertex -5.46593 -3.08274 12.2588
      vertex -5.20711 -23.5 12.7071
      vertex -5.20711 -2.80353 12.7071
    endloop
  endfacet
  facet normal -0.487058 0.617567 0.617565
    outer loop
      vertex -4.75882 24.3365 12.483
      vertex -5.20711 23.8536 12.6124
      vertex -4.75882 23.983 12.8365
    endloop
  endfacet
  facet normal -0.487057 0.617566 0.617566
    outer loop
      vertex -5.20711 23.8536 12.6124
      vertex -4.75882 24.3365 12.483
      vertex -5.20711 24.1124 12.3536
    endloop
  endfacet
  facet normal -0.487056 0.843611 0.226046
    outer loop
      vertex -4.75882 24.3365 12.483
      vertex -4.75882 24.4659 12
      vertex -5.20711 24.1124 12.3536
    endloop
  endfacet
  facet normal 0.487057 -0.617566 -0.617566
    outer loop
      vertex 10.7588 -24.3365 0.517037
      vertex 11.2071 -23.8536 0.387628
      vertex 11.2071 -24.1124 0.646447
    endloop
  endfacet
  facet normal 0.487058 -0.617567 -0.617565
    outer loop
      vertex 11.2071 -23.8536 0.387628
      vertex 10.7588 -24.3365 0.517037
      vertex 10.7588 -23.983 0.163485
    endloop
  endfacet
  facet normal 0.487058 -0.226044 -0.843611
    outer loop
      vertex 11.2071 -23.8536 0.387628
      vertex 10.7588 -23.5 0.0340748
      vertex 11.2071 -23.5 0.292893
    endloop
  endfacet
  facet normal 0 -0.707108 -0.707106
    outer loop
      vertex -4.75882 -23.983 0.163485
      vertex 10.7588 -24.3365 0.517037
      vertex -4.75882 -24.3365 0.517037
    endloop
  endfacet
  facet normal 0 -0.707108 -0.707106
    outer loop
      vertex 10.7588 -24.3365 0.517037
      vertex -4.75882 -23.983 0.163485
      vertex 10.7588 -23.983 0.163485
    endloop
  endfacet
  facet normal 0 -0.258819 -0.965926
    outer loop
      vertex -4.75882 -23.983 0.163485
      vertex 10.7588 -23.5 0.0340748
      vertex 10.7588 -23.983 0.163485
    endloop
  endfacet
  facet normal -0 -0.258819 -0.965926
    outer loop
      vertex 10.7588 -23.5 0.0340748
      vertex -4.75882 -23.983 0.163485
      vertex -4.75882 -23.5 0.0340748
    endloop
  endfacet
  facet normal 0 0 -1
    outer loop
      vertex 10.7588 -23.5 0.0340748
      vertex 9 -23 0.0340748
      vertex 10.7588 -22.3695 0.0340748
    endloop
  endfacet
  facet normal 0 0 -1
    outer loop
      vertex 10.7588 -23.5 0.0340748
      vertex 7 -23 0.0340748
      vertex 9 -23 0.0340748
    endloop
  endfacet
  facet normal 0 0 -1
    outer loop
      vertex 7 -23 0.0340748
      vertex 5.75 -23 0.0340748
      vertex 7 -21 0.0340748
    endloop
  endfacet
  facet normal 0 0 -1
    outer loop
      vertex 10.7588 -23.5 0.0340748
      vertex 5.75 -23 0.0340748
      vertex 7 -23 0.0340748
    endloop
  endfacet
  facet normal 0 0 -1
    outer loop
      vertex 10.7588 -23.5 0.0340748
      vertex 3.25 -23 0.0340748
      vertex 5.75 -23 0.0340748
    endloop
  endfacet
  facet normal 0 0 -1
    outer loop
      vertex 1 -23 0.0340748
      vertex 3.25 -22.7747 0.0340748
      vertex 3.25 -23 0.0340748
    endloop
  endfacet
  facet normal -0 0 -1
    outer loop
      vertex 3.25 -22.7747 0.0340748
      vertex 1 -23 0.0340748
      vertex 1.0987 -21 0.0340748
    endloop
  endfacet
  facet normal 0 0 -1
    outer loop
      vertex -4.75882 -23.5 0.0340748
      vertex 3.25 -23 0.0340748
      vertex 10.7588 -23.5 0.0340748
    endloop
  endfacet
  facet normal -0 0 -1
    outer loop
      vertex 3.25 -23 0.0340748
      vertex -4.75882 -23.5 0.0340748
      vertex 1 -23 0.0340748
    endloop
  endfacet
  facet normal 0 0 -1
    outer loop
      vertex -1 -23 0.0340748
      vertex -3.25 -21 0.0340748
      vertex -1 -21 0.0340748
    endloop
  endfacet
  facet normal -0 0 -1
    outer loop
      vertex -3.25 -21 0.0340748
      vertex -4.75882 -23.5 0.0340748
      vertex -3.25 21 0.0340748
    endloop
  endfacet
  facet normal -0 0 -1
    outer loop
      vertex -1 -23 0.0340748
      vertex -4.75882 -23.5 0.0340748
      vertex -3.25 -21 0.0340748
    endloop
  endfacet
  facet normal -0 0 -1
    outer loop
      vertex 1 -23 0.0340748
      vertex -4.75882 -23.5 0.0340748
      vertex -1 -23 0.0340748
    endloop
  endfacet
  facet normal -0 0 -1
    outer loop
      vertex 10.7588 -22.3695 0.0340748
      vertex 9 -23 0.0340748
      vertex 9 -20.9186 0.0340748
    endloop
  endfacet
  facet normal -0 0 -1
    outer loop
      vertex 7 -21 0.0340748
      vertex 5.75 -23 0.0340748
      vertex 5.75 -21 0.0340748
    endloop
  endfacet
  facet normal -0 0 -1
    outer loop
      vertex 1.0987 -21 0.0340748
      vertex 1 -23 0.0340748
      vertex 1 -21 0.0340748
    endloop
  endfacet
  facet normal 0 0 -1
    outer loop
      vertex -1 21 0.0340748
      vertex -3.25 21 0.0340748
      vertex -1 23 0.0340748
    endloop
  endfacet
  facet normal 0 0 -1
    outer loop
      vertex 1 23 0.0340748
      vertex 3.25 22.7747 0.0340748
      vertex 1.0987 21 0.0340748
    endloop
  endfacet
  facet normal 0 0 -1
    outer loop
      vertex 7 21 0.0340748
      vertex 5.75 21 0.0340748
      vertex 7 23 0.0340748
    endloop
  endfacet
  facet normal 0 0 -1
    outer loop
      vertex 9 23 0.0340748
      vertex 10.7588 22.3695 0.0340748
      vertex 9 20.9186 0.0340748
    endloop
  endfacet
  facet normal 0 0 -1
    outer loop
      vertex 10.7588 22.3695 0.0340748
      vertex 9 23 0.0340748
      vertex 10.7588 23.5 0.0340748
    endloop
  endfacet
  facet normal 0 0 -1
    outer loop
      vertex 7 23 0.0340748
      vertex 10.7588 23.5 0.0340748
      vertex 9 23 0.0340748
    endloop
  endfacet
  facet normal 0 0 -1
    outer loop
      vertex 5.75 23 0.0340748
      vertex 7 23 0.0340748
      vertex 5.75 21 0.0340748
    endloop
  endfacet
  facet normal 0 0 -1
    outer loop
      vertex 5.75 23 0.0340748
      vertex 10.7588 23.5 0.0340748
      vertex 7 23 0.0340748
    endloop
  endfacet
  facet normal 0 0 -1
    outer loop
      vertex 3.25 23 0.0340748
      vertex 10.7588 23.5 0.0340748
      vertex 5.75 23 0.0340748
    endloop
  endfacet
  facet normal 0 0 -1
    outer loop
      vertex 1 23 0.0340748
      vertex 1.0987 21 0.0340748
      vertex 1 21 0.0340748
    endloop
  endfacet
  facet normal 0 0 -1
    outer loop
      vertex 3.25 22.7747 0.0340748
      vertex 1 23 0.0340748
      vertex 3.25 23 0.0340748
    endloop
  endfacet
  facet normal 0 0 -1
    outer loop
      vertex -4.75882 23.5 0.0340748
      vertex 3.25 23 0.0340748
      vertex 1 23 0.0340748
    endloop
  endfacet
  facet normal 0 0 -1
    outer loop
      vertex -4.75882 23.5 0.0340748
      vertex 1 23 0.0340748
      vertex -1 23 0.0340748
    endloop
  endfacet
  facet normal 0 0 -1
    outer loop
      vertex 3.25 23 0.0340748
      vertex -4.75882 23.5 0.0340748
      vertex 10.7588 23.5 0.0340748
    endloop
  endfacet
  facet normal 0 0 -1
    outer loop
      vertex -3.25 21 0.0340748
      vertex -4.75882 23.5 0.0340748
      vertex -1 23 0.0340748
    endloop
  endfacet
  facet normal 0 0 -1
    outer loop
      vertex -4.75882 23.5 0.0340748
      vertex -3.25 21 0.0340748
      vertex -4.75882 -23.5 0.0340748
    endloop
  endfacet
  facet normal 0.858357 -0.495571 0.132788
    outer loop
      vertex 11.2071 -24.1124 12.3536
      vertex 11.2071 -24.2071 12
      vertex 11.4659 -23.7588 12
    endloop
  endfacet
  facet normal 0.858357 -0.132789 0.49557
    outer loop
      vertex 11.2071 -23.8536 12.6124
      vertex 11.4659 -23.6294 12.2241
      vertex 11.4659 -23.5 12.2588
    endloop
  endfacet
  facet normal 0.858357 -0.362783 0.362783
    outer loop
      vertex 11.2071 -23.8536 12.6124
      vertex 11.4659 -23.7241 12.1294
      vertex 11.4659 -23.6294 12.2241
    endloop
  endfacet
  facet normal 0.858357 -0.362783 0.362783
    outer loop
      vertex 11.4659 -23.7241 12.1294
      vertex 11.2071 -23.8536 12.6124
      vertex 11.2071 -24.1124 12.3536
    endloop
  endfacet
  facet normal 0.858357 0.495571 0.132788
    outer loop
      vertex 11.2071 24.1124 12.3536
      vertex 11.4659 23.7588 12
      vertex 11.2071 24.2071 12
    endloop
  endfacet
  facet normal 0.866026 0.499999 0
    outer loop
      vertex 11.4659 23.7588 12
      vertex 11.2071 24.2071 1
      vertex 11.2071 24.2071 12
    endloop
  endfacet
  facet normal 0.866026 0.499999 0
    outer loop
      vertex 11.2071 24.2071 1
      vertex 11.4659 23.7588 12
      vertex 11.4659 23.7588 1
    endloop
  endfacet
  facet normal -0.487057 0.226045 -0.843611
    outer loop
      vertex -4.75882 23.983 0.163485
      vertex -4.75882 23.5 0.0340748
      vertex -5.20711 23.8536 0.387628
    endloop
  endfacet
  facet normal -0.866026 0 -0.499999
    outer loop
      vertex -5.20711 -23.5 0.292893
      vertex -5.46593 -3.08274 0.741181
      vertex -5.20711 -2.80353 0.292893
    endloop
  endfacet
  facet normal -0.866026 -0 -0.499999
    outer loop
      vertex -5.46593 -3.08274 0.741181
      vertex -5.20711 -23.5 0.292893
      vertex -5.46593 -23.5 0.741181
    endloop
  endfacet
  facet normal -0.866026 0 -0.499999
    outer loop
      vertex -5.20711 23.5 0.292893
      vertex -5.46593 3.08274 0.741181
      vertex -5.46593 23.5 0.741181
    endloop
  endfacet
  facet normal -0.866026 0 -0.499999
    outer loop
      vertex -5.46593 3.08274 0.741181
      vertex -5.20711 23.5 0.292893
      vertex -5.20711 2.80353 0.292893
    endloop
  endfacet
  facet normal -0.858357 -0.495571 -0.132788
    outer loop
      vertex -5.46593 -23.7588 1
      vertex -5.20711 -24.1124 0.646447
      vertex -5.20711 -24.2071 1
    endloop
  endfacet
  facet normal -0.866026 -0.499999 0
    outer loop
      vertex -5.20711 -24.2071 1
      vertex -5.46593 -23.7588 12
      vertex -5.46593 -23.7588 1
    endloop
  endfacet
  facet normal -0.866026 -0.499999 0
    outer loop
      vertex -5.46593 -23.7588 12
      vertex -5.20711 -24.2071 1
      vertex -5.20711 -24.2071 12
    endloop
  endfacet
  facet normal -0.487058 -0.226044 -0.843611
    outer loop
      vertex -5.20711 -23.5 0.292893
      vertex -4.75882 -23.5 0.0340748
      vertex -5.20711 -23.8536 0.387628
    endloop
  endfacet
  facet normal -0.487058 -0.617567 0.617565
    outer loop
      vertex -5.20711 -23.8536 12.6124
      vertex -4.75882 -24.3365 12.483
      vertex -4.75882 -23.983 12.8365
    endloop
  endfacet
  facet normal -0.487057 -0.617566 0.617566
    outer loop
      vertex -4.75882 -24.3365 12.483
      vertex -5.20711 -23.8536 12.6124
      vertex -5.20711 -24.1124 12.3536
    endloop
  endfacet
  facet normal -0.858357 -0.132789 0.49557
    outer loop
      vertex -5.46593 -23.5 12.2588
      vertex -5.46593 -23.6294 12.2241
      vertex -5.20711 -23.8536 12.6124
    endloop
  endfacet
  facet normal -0.858357 0.495571 0.132788
    outer loop
      vertex -5.20711 24.2071 12
      vertex -5.46593 23.7588 12
      vertex -5.20711 24.1124 12.3536
    endloop
  endfacet
  facet normal -0.487056 0.843611 0.226045
    outer loop
      vertex -4.75882 24.4659 12
      vertex -5.20711 24.2071 12
      vertex -5.20711 24.1124 12.3536
    endloop
  endfacet
  facet normal -0.858357 0.132788 0.495571
    outer loop
      vertex -5.20711 23.8536 12.6124
      vertex -5.46593 23.5 12.2588
      vertex -5.20711 23.5 12.7071
    endloop
  endfacet
  facet normal -0.487058 0.226044 0.843611
    outer loop
      vertex -4.75882 23.5 12.9659
      vertex -5.20711 23.8536 12.6124
      vertex -5.20711 23.5 12.7071
    endloop
  endfacet
  facet normal 0 0.965926 0.25882
    outer loop
      vertex 10.7588 24.4659 12
      vertex -4.75882 24.3365 12.483
      vertex 10.7588 24.3365 12.483
    endloop
  endfacet
  facet normal 0 0.965926 0.25882
    outer loop
      vertex -4.75882 24.3365 12.483
      vertex 10.7588 24.4659 12
      vertex -4.75882 24.4659 12
    endloop
  endfacet
  facet normal 0.858357 -0.49557 -0.13279
    outer loop
      vertex 11.4659 -23.7588 1
      vertex 11.2071 -24.1124 0.646447
      vertex 11.4659 -23.7241 0.870591
    endloop
  endfacet
  facet normal 0.487057 0.617566 -0.617566
    outer loop
      vertex 11.2071 23.8536 0.387628
      vertex 10.7588 24.3365 0.517037
      vertex 11.2071 24.1124 0.646447
    endloop
  endfacet
  facet normal 0.487058 0.617567 -0.617565
    outer loop
      vertex 10.7588 24.3365 0.517037
      vertex 11.2071 23.8536 0.387628
      vertex 10.7588 23.983 0.163485
    endloop
  endfacet
  facet normal 0.858357 0.362783 -0.362783
    outer loop
      vertex 11.4659 23.7241 0.870591
      vertex 11.2071 23.8536 0.387628
      vertex 11.2071 24.1124 0.646447
    endloop
  endfacet
  facet normal 0.858357 0.362783 -0.362783
    outer loop
      vertex 11.2071 23.8536 0.387628
      vertex 11.4659 23.7241 0.870591
      vertex 11.4659 23.6294 0.775857
    endloop
  endfacet
  facet normal 0.858357 -0.49557 0.13279
    outer loop
      vertex 11.2071 -24.1124 12.3536
      vertex 11.4659 -23.7588 12
      vertex 11.4659 -23.7241 12.1294
    endloop
  endfacet
  facet normal 0 0.707108 0.707106
    outer loop
      vertex 10.7588 24.3365 12.483
      vertex -4.75882 23.983 12.8365
      vertex 10.7588 23.983 12.8365
    endloop
  endfacet
  facet normal 0 0.707108 0.707106
    outer loop
      vertex -4.75882 23.983 12.8365
      vertex 10.7588 24.3365 12.483
      vertex -4.75882 24.3365 12.483
    endloop
  endfacet
  facet normal -0.487058 0.226044 -0.843611
    outer loop
      vertex -5.20711 23.8536 0.387628
      vertex -4.75882 23.5 0.0340748
      vertex -5.20711 23.5 0.292893
    endloop
  endfacet
  facet normal -0.858357 0.132788 -0.495571
    outer loop
      vertex -5.20711 23.8536 0.387628
      vertex -5.20711 23.5 0.292893
      vertex -5.46593 23.5 0.741181
    endloop
  endfacet
  facet normal -0.858357 -0.49557 -0.13279
    outer loop
      vertex -5.46593 -23.7241 0.870591
      vertex -5.20711 -24.1124 0.646447
      vertex -5.46593 -23.7588 1
    endloop
  endfacet
  facet normal -0.858357 -0.132789 -0.49557
    outer loop
      vertex -5.46593 -23.5 0.741181
      vertex -5.20711 -23.8536 0.387628
      vertex -5.46593 -23.6294 0.775857
    endloop
  endfacet
  facet normal -0.858357 -0.362783 0.362783
    outer loop
      vertex -5.46593 -23.7241 12.1294
      vertex -5.20711 -23.8536 12.6124
      vertex -5.46593 -23.6294 12.2241
    endloop
  endfacet
  facet normal -0.858357 -0.362783 0.362783
    outer loop
      vertex -5.20711 -23.8536 12.6124
      vertex -5.46593 -23.7241 12.1294
      vertex -5.20711 -24.1124 12.3536
    endloop
  endfacet
  facet normal -0.866026 0.499999 0
    outer loop
      vertex -5.46593 23.7588 1
      vertex -5.20711 24.2071 12
      vertex -5.20711 24.2071 1
    endloop
  endfacet
  facet normal -0.866026 0.499999 0
    outer loop
      vertex -5.20711 24.2071 12
      vertex -5.46593 23.7588 1
      vertex -5.46593 23.7588 12
    endloop
  endfacet
  facet normal -0.499998 0.866027 0
    outer loop
      vertex -4.75882 24.4659 1
      vertex -5.20711 24.2071 12
      vertex -4.75882 24.4659 12
    endloop
  endfacet
  facet normal -0.499998 0.866027 0
    outer loop
      vertex -5.20711 24.2071 12
      vertex -4.75882 24.4659 1
      vertex -5.20711 24.2071 1
    endloop
  endfacet
  facet normal 0.487056 -0.843611 -0.226045
    outer loop
      vertex 10.7588 -24.4659 1
      vertex 11.2071 -24.1124 0.646447
      vertex 11.2071 -24.2071 1
    endloop
  endfacet
  facet normal 0.858357 -0.495571 -0.132788
    outer loop
      vertex 11.2071 -24.2071 1
      vertex 11.2071 -24.1124 0.646447
      vertex 11.4659 -23.7588 1
    endloop
  endfacet
  facet normal 0.858357 -0.132789 -0.49557
    outer loop
      vertex 11.4659 -23.6294 0.775857
      vertex 11.2071 -23.8536 0.387628
      vertex 11.4659 -23.5 0.741181
    endloop
  endfacet
  facet normal 1 0 0
    outer loop
      vertex 11.4659 -23.7588 12
      vertex 11.4659 -23 12.2588
      vertex 11.4659 -23.5 12.2588
    endloop
  endfacet
  facet normal 1 0 0
    outer loop
      vertex 11.4659 -23 12.2588
      vertex 11.4659 -23.7588 12
      vertex 11.4659 -23 0.741181
    endloop
  endfacet
  facet normal 1 0 0
    outer loop
      vertex 11.4659 -23.7588 12
      vertex 11.4659 -23.5 12.2588
      vertex 11.4659 -23.6294 12.2241
    endloop
  endfacet
  facet normal 1 -0 0
    outer loop
      vertex 11.4659 -23.7588 1
      vertex 11.4659 -23 0.741181
      vertex 11.4659 -23.7588 12
    endloop
  endfacet
  facet normal 1 0 0
    outer loop
      vertex 11.4659 -23.7588 12
      vertex 11.4659 -23.6294 12.2241
      vertex 11.4659 -23.7241 12.1294
    endloop
  endfacet
  facet normal 1 0 0
    outer loop
      vertex 11.4659 -23 0.741181
      vertex 11.4659 -23.7588 1
      vertex 11.4659 -23.5 0.741181
    endloop
  endfacet
  facet normal 1 0 0
    outer loop
      vertex 11.4659 -23.5 0.741181
      vertex 11.4659 -23.7588 1
      vertex 11.4659 -23.6294 0.775857
    endloop
  endfacet
  facet normal 1 0 0
    outer loop
      vertex 11.4659 -23.6294 0.775857
      vertex 11.4659 -23.7588 1
      vertex 11.4659 -23.7241 0.870591
    endloop
  endfacet
  facet normal 1 0 0
    outer loop
      vertex 11.4659 23.5 12.2588
      vertex 11.4659 23.7588 12
      vertex 11.4659 23.7241 12.1294
    endloop
  endfacet
  facet normal 1 0 0
    outer loop
      vertex 11.4659 23.7588 12
      vertex 11.4659 23 12.2588
      vertex 11.4659 23.7588 1
    endloop
  endfacet
  facet normal 1 0 0
    outer loop
      vertex 11.4659 23.5 12.2588
      vertex 11.4659 23.7241 12.1294
      vertex 11.4659 23.6294 12.2241
    endloop
  endfacet
  facet normal 1 0 0
    outer loop
      vertex 11.4659 23 0.741181
      vertex 11.4659 23.7588 1
      vertex 11.4659 23 12.2588
    endloop
  endfacet
  facet normal 1 0 0
    outer loop
      vertex 11.4659 23.7588 12
      vertex 11.4659 23.5 12.2588
      vertex 11.4659 23 12.2588
    endloop
  endfacet
  facet normal 1 0 -0
    outer loop
      vertex 11.4659 23.5 0.741181
      vertex 11.4659 23.7588 1
      vertex 11.4659 23 0.741181
    endloop
  endfacet
  facet normal 1 0 0
    outer loop
      vertex 11.4659 23.7588 1
      vertex 11.4659 23.5 0.741181
      vertex 11.4659 23.7241 0.870591
    endloop
  endfacet
  facet normal 1 0 0
    outer loop
      vertex 11.4659 23.7241 0.870591
      vertex 11.4659 23.5 0.741181
      vertex 11.4659 23.6294 0.775857
    endloop
  endfacet
  facet normal 0.487058 0.226044 -0.843611
    outer loop
      vertex 11.2071 23.5 0.292893
      vertex 10.7588 23.5 0.0340748
      vertex 11.2071 23.8536 0.387628
    endloop
  endfacet
  facet normal 0.487057 0.226045 -0.843611
    outer loop
      vertex 11.2071 23.8536 0.387628
      vertex 10.7588 23.5 0.0340748
      vertex 10.7588 23.983 0.163485
    endloop
  endfacet
  facet normal 0.858357 0.49557 -0.13279
    outer loop
      vertex 11.4659 23.7241 0.870591
      vertex 11.2071 24.1124 0.646447
      vertex 11.4659 23.7588 1
    endloop
  endfacet
  facet normal 0.487056 0.843611 0.226045
    outer loop
      vertex 11.2071 24.1124 12.3536
      vertex 11.2071 24.2071 12
      vertex 10.7588 24.4659 12
    endloop
  endfacet
  facet normal 0.487056 0.843611 0.226046
    outer loop
      vertex 11.2071 24.1124 12.3536
      vertex 10.7588 24.4659 12
      vertex 10.7588 24.3365 12.483
    endloop
  endfacet
  facet normal 0.487058 0.617567 0.617565
    outer loop
      vertex 11.2071 23.8536 12.6124
      vertex 10.7588 24.3365 12.483
      vertex 10.7588 23.983 12.8365
    endloop
  endfacet
  facet normal 0.487057 0.617566 0.617566
    outer loop
      vertex 10.7588 24.3365 12.483
      vertex 11.2071 23.8536 12.6124
      vertex 11.2071 24.1124 12.3536
    endloop
  endfacet
  facet normal -0.858357 0.362783 -0.362783
    outer loop
      vertex -5.20711 23.8536 0.387628
      vertex -5.46593 23.7241 0.870591
      vertex -5.20711 24.1124 0.646447
    endloop
  endfacet
  facet normal -0.858357 0.362783 -0.362783
    outer loop
      vertex -5.46593 23.7241 0.870591
      vertex -5.20711 23.8536 0.387628
      vertex -5.46593 23.6294 0.775857
    endloop
  endfacet
  facet normal -0.858357 -0.362783 -0.362783
    outer loop
      vertex -5.20711 -23.8536 0.387628
      vertex -5.46593 -23.7241 0.870591
      vertex -5.46593 -23.6294 0.775857
    endloop
  endfacet
  facet normal -0.858357 -0.362783 -0.362783
    outer loop
      vertex -5.46593 -23.7241 0.870591
      vertex -5.20711 -23.8536 0.387628
      vertex -5.20711 -24.1124 0.646447
    endloop
  endfacet
  facet normal -0.858357 0.495571 -0.132788
    outer loop
      vertex -5.20711 24.2071 1
      vertex -5.20711 24.1124 0.646447
      vertex -5.46593 23.7588 1
    endloop
  endfacet
  facet normal -0.487056 0.843611 -0.226045
    outer loop
      vertex -4.75882 24.4659 1
      vertex -5.20711 24.1124 0.646447
      vertex -5.20711 24.2071 1
    endloop
  endfacet
  facet normal -0.858357 0.49557 0.13279
    outer loop
      vertex -5.20711 24.1124 12.3536
      vertex -5.46593 23.7588 12
      vertex -5.46593 23.7241 12.1294
    endloop
  endfacet
  facet normal 0.866026 -0.499999 0
    outer loop
      vertex 11.2071 -24.2071 12
      vertex 11.4659 -23.7588 1
      vertex 11.4659 -23.7588 12
    endloop
  endfacet
  facet normal 0.866026 -0.499999 0
    outer loop
      vertex 11.4659 -23.7588 1
      vertex 11.2071 -24.2071 12
      vertex 11.2071 -24.2071 1
    endloop
  endfacet
  facet normal 0.499998 -0.866027 0
    outer loop
      vertex 10.7588 -24.4659 1
      vertex 11.2071 -24.2071 12
      vertex 10.7588 -24.4659 12
    endloop
  endfacet
  facet normal 0.499998 -0.866027 0
    outer loop
      vertex 11.2071 -24.2071 12
      vertex 10.7588 -24.4659 1
      vertex 11.2071 -24.2071 1
    endloop
  endfacet
  facet normal 0.858357 0.49557 0.13279
    outer loop
      vertex 11.4659 23.7241 12.1294
      vertex 11.4659 23.7588 12
      vertex 11.2071 24.1124 12.3536
    endloop
  endfacet
  facet normal 0.858357 0.362783 0.362783
    outer loop
      vertex 11.2071 23.8536 12.6124
      vertex 11.4659 23.7241 12.1294
      vertex 11.2071 24.1124 12.3536
    endloop
  endfacet
  facet normal 0.858357 0.362783 0.362783
    outer loop
      vertex 11.4659 23.7241 12.1294
      vertex 11.2071 23.8536 12.6124
      vertex 11.4659 23.6294 12.2241
    endloop
  endfacet
  facet normal -0.419358 -0.641926 -0.641926
    outer loop
      vertex -9 -1.91342 1.8806
      vertex -5.46593 -6.25193 3.91037
      vertex -9 -4.6194 4.58658
    endloop
  endfacet
  facet normal -0.419358 -0.641926 -0.641926
    outer loop
      vertex -9 -1.91342 1.8806
      vertex -5.46593 -3.08274 0.741181
      vertex -5.46593 -6.25193 3.91037
    endloop
  endfacet
  facet normal -0.419358 -0.641926 -0.641926
    outer loop
      vertex -9 -1.91342 1.8806
      vertex -5.20711 -2.80353 0.292893
      vertex -5.46593 -3.08274 0.741181
    endloop
  endfacet
  facet normal -0.419358 -0.641926 -0.641926
    outer loop
      vertex -5 -2.67878 0.0328436
      vertex -5.20711 -2.80353 0.292893
      vertex -9 -1.91342 1.8806
    endloop
  endfacet
  facet normal -0.419358 -0.641926 -0.641926
    outer loop
      vertex -5.20711 -2.80353 0.292893
      vertex -5 -2.67878 0.0328436
      vertex -5 -2.81926 0.173321
    endloop
  endfacet
  facet normal -0.419359 0.907821 0
    outer loop
      vertex -5.46593 6.25193 9.08963
      vertex -9 4.6194 4.58658
      vertex -9 4.6194 8.41342
    endloop
  endfacet
  facet normal -0.419359 0.907821 0
    outer loop
      vertex -9 4.6194 4.58658
      vertex -5.46593 6.25193 9.08963
      vertex -5.46593 6.25193 3.91037
    endloop
  endfacet
  facet normal -0.419359 0.641926 0.641926
    outer loop
      vertex -5.46593 6.25193 9.08963
      vertex -5.9799 4.24102 10.7648
      vertex -5.46593 3.08274 12.2588
    endloop
  endfacet
  facet normal -0.419359 0.641926 0.641926
    outer loop
      vertex -9 4.6194 8.41342
      vertex -5.9799 4.24102 10.7648
      vertex -5.46593 6.25193 9.08963
    endloop
  endfacet
  facet normal -0.419358 0.641926 0.641926
    outer loop
      vertex -5.9799 4.24102 10.7648
      vertex -9 4.6194 8.41342
      vertex -9 3.31095 9.72186
    endloop
  endfacet
  facet normal -0.419358 0.641927 0.641926
    outer loop
      vertex -5.20711 2.80353 12.7071
      vertex -5 2.67878 12.9672
      vertex -5 2.81926 12.8267
    endloop
  endfacet
  facet normal -0.419358 0.641926 0.641926
    outer loop
      vertex -5.20711 2.80353 12.7071
      vertex -5.9799 2.49129 12.5145
      vertex -5 2.67878 12.9672
    endloop
  endfacet
  facet normal -0.419358 0.641926 0.641926
    outer loop
      vertex -5.46593 3.08274 12.2588
      vertex -5.9799 2.49129 12.5145
      vertex -5.20711 2.80353 12.7071
    endloop
  endfacet
  facet normal -0.419358 0.641926 0.641926
    outer loop
      vertex -5.9799 2.49129 12.5145
      vertex -5.46593 3.08274 12.2588
      vertex -5.9799 4.24102 10.7648
    endloop
  endfacet
  facet normal 1 -0 0
    outer loop
      vertex -5 -2.67878 12.9672
      vertex -5 2.81926 12.8267
      vertex -5 2.67878 12.9672
    endloop
  endfacet
  facet normal 1 0 0
    outer loop
      vertex -5 2.81926 12.8267
      vertex -5 -2.67878 12.9672
      vertex -5 -2.81926 12.8267
    endloop
  endfacet
  facet normal 1 0 0
    outer loop
      vertex -5 2.81926 0.173321
      vertex -5 -2.67878 0.0328436
      vertex -5 2.67878 0.0328436
    endloop
  endfacet
  facet normal 1 0 -0
    outer loop
      vertex -5 -2.67878 0.0328436
      vertex -5 2.81926 0.173321
      vertex -5 -2.81926 0.173321
    endloop
  endfacet
  facet normal -0.419358 0.641926 -0.641926
    outer loop
      vertex -5.46593 6.25193 3.91037
      vertex -9 1.91342 1.8806
      vertex -9 4.6194 4.58658
    endloop
  endfacet
  facet normal -0.419358 0.641926 -0.641926
    outer loop
      vertex -5.46593 3.08274 0.741181
      vertex -9 1.91342 1.8806
      vertex -5.46593 6.25193 3.91037
    endloop
  endfacet
  facet normal -0.419358 0.641926 -0.641926
    outer loop
      vertex -5.20711 2.80353 0.292893
      vertex -9 1.91342 1.8806
      vertex -5.46593 3.08274 0.741181
    endloop
  endfacet
  facet normal -0.419358 0.641926 -0.641926
    outer loop
      vertex -5 2.67878 0.0328436
      vertex -5.20711 2.80353 0.292893
      vertex -5 2.81926 0.173321
    endloop
  endfacet
  facet normal -0.419358 0.641926 -0.641926
    outer loop
      vertex -5.20711 2.80353 0.292893
      vertex -5 2.67878 0.0328436
      vertex -9 1.91342 1.8806
    endloop
  endfacet
  facet normal -0.419359 -0.907821 0
    outer loop
      vertex -9 -4.6194 4.58658
      vertex -5.46593 -6.25193 9.08963
      vertex -9 -4.6194 8.41342
    endloop
  endfacet
  facet normal -0.419359 -0.907821 -0
    outer loop
      vertex -5.46593 -6.25193 9.08963
      vertex -9 -4.6194 4.58658
      vertex -5.46593 -6.25193 3.91037
    endloop
  endfacet
  facet normal -1 0 0
    outer loop
      vertex -9 4.6194 4.58658
      vertex -9 3.31095 5.12856
      vertex -9 4.6194 8.41342
    endloop
  endfacet
  facet normal -1 0 0
    outer loop
      vertex -9 1.91342 1.8806
      vertex -9 3.31095 5.12856
      vertex -9 4.6194 4.58658
    endloop
  endfacet
  facet normal -1 0 0
    outer loop
      vertex -9 1.91342 1.8806
      vertex -9 1.37144 3.18905
      vertex -9 3.31095 5.12856
    endloop
  endfacet
  facet normal -1 0 0
    outer loop
      vertex -9 1.91342 1.8806
      vertex -9 -1.37144 3.18905
      vertex -9 1.37144 3.18905
    endloop
  endfacet
  facet normal -1 0 0
    outer loop
      vertex -9 -1.91342 1.8806
      vertex -9 -1.37144 3.18905
      vertex -9 1.91342 1.8806
    endloop
  endfacet
  facet normal -1 0 0
    outer loop
      vertex -9 -1.91342 1.8806
      vertex -9 -3.31095 5.12856
      vertex -9 -1.37144 3.18905
    endloop
  endfacet
  facet normal -1 0 0
    outer loop
      vertex -9 -4.6194 4.58658
      vertex -9 -3.31095 5.12856
      vertex -9 -1.91342 1.8806
    endloop
  endfacet
  facet normal -1 0 0
    outer loop
      vertex -9 -4.6194 8.41342
      vertex -9 -3.31095 5.12856
      vertex -9 -4.6194 4.58658
    endloop
  endfacet
  facet normal -1 0 0
    outer loop
      vertex -9 -3.31095 5.12856
      vertex -9 -4.6194 8.41342
      vertex -9 -3.31095 9.72186
    endloop
  endfacet
  facet normal -1 -0 0
    outer loop
      vertex -9 4.6194 8.41342
      vertex -9 3.31095 5.12856
      vertex -9 3.31095 9.72186
    endloop
  endfacet
  facet normal -0.419359 0 -0.907821
    outer loop
      vertex -9 -1.91342 1.8806
      vertex -5 2.67878 0.0328436
      vertex -5 -2.67878 0.0328436
    endloop
  endfacet
  facet normal -0.419359 0 -0.907821
    outer loop
      vertex -5 2.67878 0.0328436
      vertex -9 -1.91342 1.8806
      vertex -9 1.91342 1.8806
    endloop
  endfacet
  facet normal -0.419358 -0.641927 0.641926
    outer loop
      vertex -5 -2.67878 12.9672
      vertex -5.20711 -2.80353 12.7071
      vertex -5 -2.81926 12.8267
    endloop
  endfacet
  facet normal -0.419358 -0.641926 0.641926
    outer loop
      vertex -5.9799 -2.49129 12.5145
      vertex -5.20711 -2.80353 12.7071
      vertex -5 -2.67878 12.9672
    endloop
  endfacet
  facet normal -0.419358 -0.641926 0.641926
    outer loop
      vertex -5.9799 -2.49129 12.5145
      vertex -5.46593 -3.08274 12.2588
      vertex -5.20711 -2.80353 12.7071
    endloop
  endfacet
  facet normal -0.419358 -0.641926 0.641926
    outer loop
      vertex -5.9799 -4.24102 10.7648
      vertex -5.46593 -3.08274 12.2588
      vertex -5.9799 -2.49129 12.5145
    endloop
  endfacet
  facet normal -0.419359 -0.641926 0.641926
    outer loop
      vertex -5.46593 -3.08274 12.2588
      vertex -5.9799 -4.24102 10.7648
      vertex -5.46593 -6.25193 9.08963
    endloop
  endfacet
  facet normal -0.419358 -0.641926 0.641926
    outer loop
      vertex -9 -4.6194 8.41342
      vertex -5.9799 -4.24102 10.7648
      vertex -9 -3.31095 9.72186
    endloop
  endfacet
  facet normal -0.419359 -0.641926 0.641926
    outer loop
      vertex -5.9799 -4.24102 10.7648
      vertex -9 -4.6194 8.41342
      vertex -5.46593 -6.25193 9.08963
    endloop
  endfacet
  facet normal -0.419358 0 0.907821
    outer loop
      vertex -5.9799 2.49129 12.5145
      vertex -5 -2.67878 12.9672
      vertex -5 2.67878 12.9672
    endloop
  endfacet
  facet normal -0.419358 0 0.907821
    outer loop
      vertex -5 -2.67878 12.9672
      vertex -5.9799 2.49129 12.5145
      vertex -5.9799 -2.49129 12.5145
    endloop
  endfacet
  facet normal 0.29432 -0.675787 0.675787
    outer loop
      vertex -9 1.37144 3.18905
      vertex -5.9799 4.24102 4.74331
      vertex -9 3.31095 5.12856
    endloop
  endfacet
  facet normal 0.29432 -0.675787 0.675787
    outer loop
      vertex -5.9799 4.24102 4.74331
      vertex -9 1.37144 3.18905
      vertex -5.9799 1.75669 2.25898
    endloop
  endfacet
  facet normal 0.294319 -0.955707 0
    outer loop
      vertex -5.9799 4.24102 4.74331
      vertex -9 3.31095 9.72186
      vertex -9 3.31095 5.12856
    endloop
  endfacet
  facet normal 0.294319 -0.955707 0
    outer loop
      vertex -9 3.31095 9.72186
      vertex -5.9799 4.24102 4.74331
      vertex -5.9799 4.24102 10.7648
    endloop
  endfacet
  facet normal -1 0 0
    outer loop
      vertex -5.9799 -4.24102 10.7648
      vertex -5.9799 4.24102 10.7648
      vertex -5.9799 4.24102 4.74331
    endloop
  endfacet
  facet normal -1 0 0
    outer loop
      vertex -5.9799 -4.24102 4.74331
      vertex -5.9799 4.24102 4.74331
      vertex -5.9799 1.75669 2.25898
    endloop
  endfacet
  facet normal -1 0 0
    outer loop
      vertex -5.9799 -4.24102 4.74331
      vertex -5.9799 1.75669 2.25898
      vertex -5.9799 -1.75669 2.25898
    endloop
  endfacet
  facet normal -1 0 0
    outer loop
      vertex -5.9799 -4.24102 10.7648
      vertex -5.9799 4.24102 4.74331
      vertex -5.9799 -4.24102 4.74331
    endloop
  endfacet
  facet normal -1 0 0
    outer loop
      vertex -5.9799 4.24102 10.7648
      vertex -5.9799 -4.24102 10.7648
      vertex -5.9799 2.49129 12.5145
    endloop
  endfacet
  facet normal -1 -0 0
    outer loop
      vertex -5.9799 2.49129 12.5145
      vertex -5.9799 -4.24102 10.7648
      vertex -5.9799 -2.49129 12.5145
    endloop
  endfacet
  facet normal 0.294319 0.955707 -0
    outer loop
      vertex -5.9799 -4.24102 4.74331
      vertex -9 -3.31095 9.72186
      vertex -5.9799 -4.24102 10.7648
    endloop
  endfacet
  facet normal 0.294319 0.955707 0
    outer loop
      vertex -9 -3.31095 9.72186
      vertex -5.9799 -4.24102 4.74331
      vertex -9 -3.31095 5.12856
    endloop
  endfacet
  facet normal 0.294319 0 0.955707
    outer loop
      vertex -9 1.37144 3.18905
      vertex -5.9799 -1.75669 2.25898
      vertex -5.9799 1.75669 2.25898
    endloop
  endfacet
  facet normal 0.294319 0 0.955707
    outer loop
      vertex -5.9799 -1.75669 2.25898
      vertex -9 1.37144 3.18905
      vertex -9 -1.37144 3.18905
    endloop
  endfacet
  facet normal 0.29432 0.675787 0.675787
    outer loop
      vertex -5.9799 -4.24102 4.74331
      vertex -9 -1.37144 3.18905
      vertex -9 -3.31095 5.12856
    endloop
  endfacet
  facet normal 0.29432 0.675787 0.675787
    outer loop
      vertex -9 -1.37144 3.18905
      vertex -5.9799 -4.24102 4.74331
      vertex -5.9799 -1.75669 2.25898
    endloop
  endfacet
endsolid OpenSCAD_Model
